<svg data-v-fde0c5aa="" xmlns="http://www.w3.org/2000/svg" viewBox="0 0 300 300" class="iconAboveSlogan"><!----><defs data-v-fde0c5aa=""><!----></defs><rect data-v-fde0c5aa="" fill="#D2EAF5" x="0" y="0" width="300px" height="300px" class="logo-background-square"></rect><defs data-v-fde0c5aa=""><!----></defs><g data-v-fde0c5aa="" id="8fbc2dbe-e1b8-4b4c-94d4-5c045b006139" fill="#022239" transform="matrix(1.9641913544668588,0,0,1.9641913544668588,17.053712968299713,150.68776012026342)"><path d="M1.50 12.61L1.50 2.95L3.12 2.95L5.96 10.92L8.86 2.95L10.49 2.95L10.49 12.61L9.56 12.61L9.56 3.51L6.52 11.76L5.46 11.76L2.43 3.51L2.43 12.61L1.50 12.61ZM13.10 4.20L13.10 2.95L14.12 2.95L14.12 4.20L13.10 4.20ZM13.19 12.61L13.19 5.78L14.04 5.78L14.04 12.61L13.19 12.61ZM16.43 12.61L16.43 5.78L17.30 5.78L17.30 7.01L17.30 7.01Q17.58 6.38 18.14 6.01L18.14 6.01L18.14 6.01Q18.70 5.63 19.36 5.63L19.36 5.63L19.36 5.63Q19.95 5.63 20.43 5.95L20.43 5.95L20.08 6.71L20.08 6.71Q19.78 6.45 19.22 6.45L19.22 6.45L19.22 6.45Q18.29 6.45 17.79 7.14L17.79 7.14L17.79 7.14Q17.29 7.83 17.29 9.06L17.29 9.06L17.29 12.61L16.43 12.61ZM21.84 12.61L21.84 5.78L22.71 5.78L22.71 7.01L22.71 7.01Q22.98 6.38 23.54 6.01L23.54 6.01L23.54 6.01Q24.10 5.63 24.77 5.63L24.77 5.63L24.77 5.63Q25.36 5.63 25.83 5.95L25.83 5.95L25.48 6.71L25.48 6.71Q25.18 6.45 24.63 6.45L24.63 6.45L24.63 6.45Q23.69 6.45 23.19 7.14L23.19 7.14L23.19 7.14Q22.70 7.83 22.70 9.06L22.70 9.06L22.70 12.61L21.84 12.61ZM29.85 12.74L29.85 12.74Q28.94 12.74 28.22 12.26L28.22 12.26L28.22 12.26Q27.50 11.78 27.10 10.96L27.10 10.96L27.10 10.96Q26.70 10.14 26.70 9.17L26.70 9.17L26.70 9.17Q26.70 8.20 27.10 7.39L27.10 7.39L27.10 7.39Q27.50 6.58 28.22 6.11L28.22 6.11L28.22 6.11Q28.94 5.63 29.85 5.63L29.85 5.63L29.85 5.63Q30.77 5.63 31.50 6.11L31.50 6.11L31.50 6.11Q32.22 6.58 32.63 7.40L32.63 7.40L32.63 7.40Q33.04 8.21 33.04 9.17L33.04 9.17L33.04 9.17Q33.04 10.14 32.63 10.96L32.63 10.96L32.63 10.96Q32.22 11.78 31.50 12.26L31.50 12.26L31.50 12.26Q30.77 12.74 29.85 12.74L29.85 12.74ZM29.87 12.04L29.87 12.04Q30.63 12.04 31.15 11.64L31.15 11.64L31.15 11.64Q31.68 11.23 31.93 10.58L31.93 10.58L31.93 10.58Q32.19 9.92 32.19 9.17L32.19 9.17L32.19 9.17Q32.19 8.43 31.93 7.78L31.93 7.78L31.93 7.78Q31.68 7.13 31.16 6.73L31.16 6.73L31.16 6.73Q30.64 6.33 29.88 6.33L29.88 6.33L29.88 6.33Q29.13 6.33 28.60 6.73L28.60 6.73L28.60 6.73Q28.08 7.13 27.82 7.78L27.82 7.78L27.82 7.78Q27.56 8.43 27.56 9.17L27.56 9.17L27.56 9.17Q27.56 9.93 27.82 10.58L27.82 10.58L27.82 10.58Q28.08 11.24 28.60 11.64L28.60 11.64L28.60 11.64Q29.12 12.04 29.87 12.04L29.87 12.04ZM34.88 12.61L34.88 5.78L35.75 5.78L35.75 7.01L35.75 7.01Q36.02 6.38 36.58 6.01L36.58 6.01L36.58 6.01Q37.14 5.63 37.80 5.63L37.80 5.63L37.80 5.63Q38.40 5.63 38.87 5.95L38.87 5.95L38.52 6.71L38.52 6.71Q38.22 6.45 37.67 6.45L37.67 6.45L37.67 6.45Q36.73 6.45 36.23 7.14L36.23 7.14L36.23 7.14Q35.73 7.83 35.73 9.06L35.73 9.06L35.73 12.61L34.88 12.61ZM44.37 12.61L44.37 2.95L46.75 2.95L46.75 2.95Q48.30 2.95 49.38 3.51L49.38 3.51L49.38 3.51Q50.46 4.07 51.02 5.17L51.02 5.17L51.02 5.17Q51.58 6.27 51.58 7.85L51.58 7.85L51.58 7.85Q51.58 9.37 51.02 10.43L51.02 10.43L51.02 10.43Q50.45 11.50 49.36 12.05L49.36 12.05L49.36 12.05Q48.28 12.61 46.74 12.61L46.74 12.61L44.37 12.61ZM45.29 11.76L46.57 11.76L46.57 11.76Q47.74 11.76 48.67 11.32L48.67 11.32L48.67 11.32Q49.59 10.88 50.12 9.98L50.12 9.98L50.12 9.98Q50.66 9.08 50.66 7.77L50.66 7.77L50.66 7.77Q50.66 5.84 49.66 4.80L49.66 4.80L49.66 4.80Q48.65 3.76 46.72 3.76L46.72 3.76L45.29 3.76L45.29 11.76ZM53.60 4.20L53.60 2.95L54.62 2.95L54.62 4.20L53.60 4.20ZM53.68 12.61L53.68 5.78L54.54 5.78L54.54 12.61L53.68 12.61ZM59.21 11.76L59.21 11.76Q60.18 11.90 60.74 12.05L60.74 12.05L60.74 12.05Q61.29 12.20 61.68 12.58L61.68 12.58L61.68 12.58Q62.07 12.97 62.07 13.69L62.07 13.69L62.07 13.69Q62.07 14.34 61.70 14.80L61.70 14.80L61.70 14.80Q61.33 15.26 60.73 15.49L60.73 15.49L60.73 15.49Q60.12 15.72 59.41 15.72L59.41 15.72L59.41 15.72Q58.57 15.72 57.91 15.41L57.91 15.41L57.91 15.41Q57.26 15.10 56.89 14.58L56.89 14.58L56.89 14.58Q56.53 14.05 56.53 13.42L56.53 13.42L56.53 13.42Q56.53 13.26 56.54 13.17L56.54 13.17L57.59 12.09L57.59 12.09Q56.68 11.61 56.68 10.67L56.68 10.67L56.68 10.67Q56.68 10.37 56.78 10.10L56.78 10.10L56.78 10.10Q56.88 9.84 57.14 9.60L57.14 9.60L57.14 9.60Q56.86 9.30 56.71 8.91L56.71 8.91L56.71 8.91Q56.57 8.52 56.57 8.05L56.57 8.05L56.57 8.05Q56.57 7.35 56.89 6.81L56.89 6.81L56.89 6.81Q57.22 6.28 57.78 5.98L57.78 5.98L57.78 5.98Q58.35 5.69 59.06 5.69L59.06 5.69L59.06 5.69Q59.60 5.69 60.06 5.87L60.06 5.87L60.06 5.87Q60.53 6.06 60.85 6.38L60.85 6.38L61.89 5.43L62.39 6.08L61.26 6.96L61.26 6.96Q61.51 7.47 61.51 8.05L61.51 8.05L61.51 8.05Q61.51 8.76 61.19 9.29L61.19 9.29L61.19 9.29Q60.87 9.81 60.31 10.09L60.31 10.09L60.31 10.09Q59.75 10.36 59.04 10.36L59.04 10.36L59.04 10.36Q58.34 10.36 57.76 10.08L57.76 10.08L57.76 10.08Q57.61 10.20 57.53 10.34L57.53 10.34L57.53 10.34Q57.45 10.47 57.45 10.64L57.45 10.64L57.45 10.64Q57.45 11.16 57.93 11.41L57.93 11.41L57.93 11.41Q58.41 11.66 59.21 11.76L59.21 11.76ZM59.03 6.38L59.03 6.38Q58.56 6.38 58.19 6.60L58.19 6.60L58.19 6.60Q57.83 6.83 57.63 7.21L57.63 7.21L57.63 7.21Q57.44 7.59 57.44 8.03L57.44 8.03L57.44 8.03Q57.44 8.51 57.63 8.88L57.63 8.88L57.63 8.88Q57.83 9.25 58.19 9.45L58.19 9.45L58.19 9.45Q58.55 9.65 59.03 9.65L59.03 9.65L59.03 9.65Q59.51 9.65 59.87 9.45L59.87 9.45L59.87 9.45Q60.24 9.25 60.44 8.88L60.44 8.88L60.44 8.88Q60.64 8.51 60.64 8.03L60.64 8.03L60.64 8.03Q60.64 7.57 60.44 7.20L60.44 7.20L60.44 7.20Q60.24 6.82 59.87 6.60L59.87 6.60L59.87 6.60Q59.51 6.38 59.03 6.38L59.03 6.38ZM59.51 14.92L59.51 14.92Q59.98 14.92 60.40 14.78L60.40 14.78L60.40 14.78Q60.81 14.65 61.07 14.38L61.07 14.38L61.07 14.38Q61.33 14.12 61.33 13.73L61.33 13.73L61.33 13.73Q61.33 13.33 61.08 13.11L61.08 13.11L61.08 13.11Q60.84 12.89 60.47 12.80L60.47 12.80L60.47 12.80Q60.11 12.70 59.45 12.60L59.45 12.60L58.99 12.52L58.99 12.52Q58.60 12.46 58.28 12.36L58.28 12.36L57.35 13.43L57.35 13.43Q57.34 13.79 57.59 14.14L57.59 14.14L57.59 14.14Q57.85 14.48 58.34 14.70L58.34 14.70L58.34 14.70Q58.84 14.92 59.51 14.92L59.51 14.92ZM63.82 4.20L63.82 2.95L64.84 2.95L64.84 4.20L63.82 4.20ZM63.90 12.61L63.90 5.78L64.76 5.78L64.76 12.61L63.90 12.61ZM68.91 12.74L68.91 12.74Q68.08 12.74 67.73 12.24L67.73 12.24L67.73 12.24Q67.39 11.74 67.39 10.81L67.39 10.81L67.39 6.47L66.29 6.47L66.29 5.78L67.39 5.78L67.39 4.27L68.24 3.38L68.24 5.78L69.98 5.78L69.98 6.47L68.24 6.47L68.24 10.90L68.24 10.90Q68.24 11.46 68.49 11.76L68.49 11.76L68.49 11.76Q68.74 12.06 69.14 12.06L69.14 12.06L69.14 12.06Q69.42 12.06 69.75 11.91L69.75 11.91L69.75 12.62L69.75 12.62Q69.64 12.67 69.42 12.70L69.42 12.70L69.42 12.70Q69.19 12.74 68.91 12.74L68.91 12.74ZM73.14 12.74L73.14 12.74Q72.51 12.74 72.02 12.50L72.02 12.50L72.02 12.50Q71.53 12.26 71.26 11.82L71.26 11.82L71.26 11.82Q70.98 11.37 70.98 10.76L70.98 10.76L70.98 10.76Q70.98 8.74 74.06 8.74L74.06 8.74L75.58 8.74L75.58 8.74Q75.58 7.62 75.17 7L75.17 7L75.17 7Q74.76 6.38 73.81 6.38L73.81 6.38L73.81 6.38Q72.62 6.38 71.85 7.42L71.85 7.42L71.24 6.94L71.24 6.94Q72.17 5.63 73.74 5.63L73.74 5.63L73.74 5.63Q74.58 5.63 75.16 5.97L75.16 5.97L75.16 5.97Q75.75 6.32 76.05 6.94L76.05 6.94L76.05 6.94Q76.34 7.57 76.34 8.41L76.34 8.41L76.34 12.61L75.61 12.61L75.61 11.20L75.61 11.20Q75.26 11.97 74.60 12.36L74.60 12.36L74.60 12.36Q73.94 12.74 73.14 12.74L73.14 12.74ZM73.23 12.02L73.23 12.02Q73.94 12.02 74.48 11.62L74.48 11.62L74.48 11.62Q75.01 11.23 75.29 10.63L75.29 10.63L75.29 10.63Q75.58 10.02 75.58 9.41L75.58 9.41L74.16 9.41L74.16 9.41Q72.99 9.41 72.44 9.72L72.44 9.72L72.44 9.72Q71.88 10.03 71.88 10.77L71.88 10.77L71.88 10.77Q71.88 11.42 72.25 11.72L72.25 11.72L72.25 11.72Q72.63 12.02 73.23 12.02L73.23 12.02ZM79.57 12.74L79.57 12.74Q79.11 12.74 78.89 12.57L78.89 12.57L78.89 12.57Q78.67 12.39 78.61 12.13L78.61 12.13L78.61 12.13Q78.54 11.87 78.54 11.46L78.54 11.46L78.54 11.22L78.54 2.95L79.41 2.95L79.41 11.64L79.41 11.64Q79.41 11.74 79.41 11.76L79.41 11.76L79.41 11.76Q79.41 11.78 79.48 11.89L79.48 11.89L79.48 11.89Q79.54 12.00 79.69 12.00L79.69 12.00L79.69 12.00Q80.06 12.00 80.40 11.94L80.40 11.94L80.40 12.61L80.40 12.61Q80.26 12.66 80.03 12.70L80.03 12.70L80.03 12.70Q79.80 12.74 79.57 12.74L79.57 12.74ZM85.72 4.20L85.72 2.95L86.73 2.95L86.73 4.20L85.72 4.20ZM85.80 12.61L85.80 5.78L86.65 5.78L86.65 12.61L85.80 12.61ZM89.04 12.61L89.04 5.78L89.90 5.78L89.90 7.06L89.90 7.06Q90.24 6.41 90.81 6.04L90.81 6.04L90.81 6.04Q91.38 5.66 92.16 5.66L92.16 5.66L92.16 5.66Q92.91 5.66 93.42 6.03L93.42 6.03L93.42 6.03Q93.92 6.40 94.15 7.03L94.15 7.03L94.15 7.03Q94.39 7.66 94.39 8.45L94.39 8.45L94.39 12.61L93.54 12.61L93.54 8.52L93.54 8.52Q93.54 7.64 93.17 7.00L93.17 7.00L93.17 7.00Q92.80 6.36 91.93 6.36L91.93 6.36L91.93 6.36Q91.36 6.36 90.90 6.68L90.90 6.68L90.90 6.68Q90.44 6.99 90.17 7.61L90.17 7.61L90.17 7.61Q89.90 8.22 89.90 9.11L89.90 9.11L89.90 12.61L89.04 12.61ZM96.55 4.20L96.55 2.95L97.57 2.95L97.57 4.20L96.55 4.20ZM96.63 12.61L96.63 5.78L97.49 5.78L97.49 12.61L96.63 12.61ZM101.64 12.74L101.64 12.74Q100.81 12.74 100.46 12.24L100.46 12.24L100.46 12.24Q100.12 11.74 100.12 10.81L100.12 10.81L100.12 6.47L99.03 6.47L99.03 5.78L100.12 5.78L100.12 4.27L100.97 3.38L100.97 5.78L102.71 5.78L102.71 6.47L100.97 6.47L100.97 10.90L100.97 10.90Q100.97 11.46 101.22 11.76L101.22 11.76L101.22 11.76Q101.47 12.06 101.87 12.06L101.87 12.06L101.87 12.06Q102.15 12.06 102.48 11.91L102.48 11.91L102.48 12.62L102.48 12.62Q102.38 12.67 102.15 12.70L102.15 12.70L102.15 12.70Q101.92 12.74 101.64 12.74L101.64 12.74ZM104.28 4.20L104.28 2.95L105.29 2.95L105.29 4.20L104.28 4.20ZM104.36 12.61L104.36 5.78L105.21 5.78L105.21 12.61L104.36 12.61ZM109.13 12.74L109.13 12.74Q108.50 12.74 108.01 12.50L108.01 12.50L108.01 12.50Q107.52 12.26 107.25 11.82L107.25 11.82L107.25 11.82Q106.98 11.37 106.98 10.76L106.98 10.76L106.98 10.76Q106.98 8.74 110.05 8.74L110.05 8.74L111.57 8.74L111.57 8.74Q111.57 7.62 111.16 7L111.16 7L111.16 7Q110.75 6.38 109.81 6.38L109.81 6.38L109.81 6.38Q108.61 6.38 107.84 7.42L107.84 7.42L107.23 6.94L107.23 6.94Q108.17 5.63 109.73 5.63L109.73 5.63L109.73 5.63Q110.57 5.63 111.16 5.97L111.16 5.97L111.16 5.97Q111.74 6.32 112.04 6.94L112.04 6.94L112.04 6.94Q112.33 7.57 112.33 8.41L112.33 8.41L112.33 12.61L111.60 12.61L111.60 11.20L111.60 11.20Q111.25 11.97 110.59 12.36L110.59 12.36L110.59 12.36Q109.93 12.74 109.13 12.74L109.13 12.74ZM109.22 12.02L109.22 12.02Q109.94 12.02 110.47 11.62L110.47 11.62L110.47 11.62Q111.00 11.23 111.29 10.63L111.29 10.63L111.29 10.63Q111.57 10.02 111.57 9.41L111.57 9.41L110.15 9.41L110.15 9.41Q108.99 9.41 108.43 9.72L108.43 9.72L108.43 9.72Q107.87 10.03 107.87 10.77L107.87 10.77L107.87 10.77Q107.87 11.42 108.24 11.72L108.24 11.72L108.24 11.72Q108.62 12.02 109.22 12.02L109.22 12.02ZM116.31 12.74L116.31 12.74Q115.48 12.74 115.13 12.24L115.13 12.24L115.13 12.24Q114.79 11.74 114.79 10.81L114.79 10.81L114.79 6.47L113.70 6.47L113.70 5.78L114.79 5.78L114.79 4.27L115.64 3.38L115.64 5.78L117.38 5.78L117.38 6.47L115.64 6.47L115.64 10.90L115.64 10.90Q115.64 11.46 115.89 11.76L115.89 11.76L115.89 11.76Q116.14 12.06 116.54 12.06L116.54 12.06L116.54 12.06Q116.82 12.06 117.15 11.91L117.15 11.91L117.15 12.62L117.15 12.62Q117.04 12.67 116.82 12.70L116.82 12.70L116.82 12.70Q116.59 12.74 116.31 12.74L116.31 12.74ZM118.95 4.20L118.95 2.95L119.96 2.95L119.96 4.20L118.95 4.20ZM119.03 12.61L119.03 5.78L119.88 5.78L119.88 12.61L119.03 12.61ZM123.90 12.61L121.41 5.78L122.34 5.78L124.29 11.48L126.25 5.78L127.16 5.78L124.68 12.61L123.90 12.61ZM131.15 12.69L131.15 12.69Q130.18 12.69 129.51 12.22L129.51 12.22L129.51 12.22Q128.84 11.76 128.50 10.98L128.50 10.98L128.50 10.98Q128.17 10.19 128.17 9.23L128.17 9.23L128.17 9.23Q128.17 8.28 128.50 7.47L128.50 7.47L128.50 7.47Q128.83 6.67 129.48 6.18L129.48 6.18L129.48 6.18Q130.12 5.69 131.04 5.69L131.04 5.69L131.04 5.69Q132.06 5.69 132.70 6.16L132.70 6.16L132.70 6.16Q133.33 6.64 133.60 7.38L133.60 7.38L133.60 7.38Q133.87 8.13 133.87 9.00L133.87 9.00L133.87 9.00Q133.87 9.24 133.84 9.48L133.84 9.48L129.06 9.48L129.06 9.48Q129.04 10.15 129.28 10.71L129.28 10.71L129.28 10.71Q129.51 11.27 129.99 11.61L129.99 11.61L129.99 11.61Q130.46 11.95 131.14 11.95L131.14 11.95L131.14 11.95Q131.80 11.95 132.27 11.79L132.27 11.79L132.27 11.79Q132.73 11.63 133.12 11.22L133.12 11.22L133.71 11.67L133.71 11.67Q133.16 12.21 132.56 12.45L132.56 12.45L132.56 12.45Q131.96 12.69 131.15 12.69L131.15 12.69ZM129.06 8.74L133.05 8.74L133.05 8.74Q133.05 8.13 132.86 7.60L132.86 7.60L132.86 7.60Q132.67 7.07 132.21 6.73L132.21 6.73L132.21 6.73Q131.76 6.39 131.04 6.39L131.04 6.39L131.04 6.39Q130.41 6.39 129.97 6.71L129.97 6.71L129.97 6.71Q129.53 7.03 129.31 7.57L129.31 7.57L129.31 7.57Q129.08 8.10 129.06 8.74L129.06 8.74Z"></path></g><defs data-v-fde0c5aa=""><linearGradient data-v-fde0c5aa="" gradientTransform="rotate(25)" id="ce14610d-5aae-401e-8617-a8ece1c30aea" x1="0%" y1="0%" x2="100%" y2="0%"><stop data-v-fde0c5aa="" offset="0%" stop-color="#000A68" stop-opacity="1"></stop><stop data-v-fde0c5aa="" offset="100%" stop-color="#00C4EE" stop-opacity="1"></stop></linearGradient></defs><g data-v-fde0c5aa="" id="f17b75f4-d214-4f41-8fbf-12ecd4ef3c74" stroke="none" fill="url(#ce14610d-5aae-401e-8617-a8ece1c30aea)" transform="matrix(0.042816547051400075,0,0,0.042816547051400075,122.58481567052817,104.22032638055148)"><path d="M1129.8 604.9c-7.8-7.8-24.1-13.7-35.8-13.7-300.5 5.9-601 5.9-902.1 0-11.7 0-28 5.9-35.8 13.7-48.8 47.5-72.8 70.9-117.7 116.4-7.2 7.2-3.9 13.7 7.8 14.3 398 18.9 795.4 18.9 1193.5-.7 11.7-.7 15-7.2 7.8-14.3-44.9-44.8-68.3-68.2-117.7-115.7zM514.5 727.8c-11.7 0-14.3-6.5-5.9-14.3 5.2-4.6 7.8-7.2 13-12.4 8.5-7.8 24.7-14.3 36.4-14.3 68.9.7 103.4.7 172.4 0 11.7 0 28 6.5 36.4 14.3 5.2 4.6 7.8 7.2 13 12.4 8.5 7.8 5.9 14.3-5.9 14.3-85.8.7-172.9.7-259.4 0z"></path><path d="M1249.4 774c-.7 4.6-5.2 9.1-10.4 9.1-400 22.8-798 22.8-1198 0-4.6 0-9.1-4.6-10.4-9.1-.7-5.9-1.3-8.5-2-14.3-.7-4.6 2.6-8.5 7.8-8.5C439 772 841 772 1244.2 751.2c4.6 0 8.5 3.3 7.8 8.5-1.3 5.8-1.9 8.4-2.6 14.3zM642 195.1c-48.1 0-87.2 39-87.2 87.2 0 45.5 37.7 55.3 49.4 117.7 0 1.3.7 3.9 2.6 3.9 11.7 2 23.4 2.6 35.8 2.6s24.1-.7 35.8-2.6c2 0 2.6-2 2.6-3.3 13-58.5 49.4-72.8 49.4-118.4-.6-47.4-39.7-87.1-88.4-87.1zM651.1 419.5h-17.6l-20.2-1.3c-4.6-.7-7.8 2.6-7.2 7.8l3.9 26c.7 4.6 5.2 9.8 9.8 11.1 0 0 4.6 1.3 22.1 1.3 17.6 0 22.1-1.3 22.1-1.3 4.6-1.3 9.1-6.5 9.8-11.1l3.9-26c.7-4.6-2.6-8.5-7.2-7.8l-19.4 1.3zM543.1 228.3c-1.3 0-2.6-.7-3.9-1.3l-52.7-30.6c-3.9-2-5.2-7.2-2.6-11.1 2-3.9 7.2-5.2 11.1-2.6l52.7 30.6c3.9 2 5.2 7.2 2.6 11.1-2 2.6-4.6 3.9-7.2 3.9zM580.8 182.1c-2.6 0-5.2-1.3-7.2-3.9L543 125.5c-2-3.9-.7-8.5 2.6-11.1 3.9-2 8.5-.7 11.1 2.6l30.6 52.7c2 3.9.7 8.5-2.6 11.1-1.3.7-2.6 1.3-3.9 1.3zM640 160c-4.6 0-7.8-3.3-7.8-7.8V96.9c0-4.6 3.3-7.8 7.8-7.8 4.6 0 7.8 3.3 7.8 7.8v55.3c0 3.9-3.2 7.8-7.8 7.8zM703.7 182.1c-1.3 0-2.6-.7-3.9-1.3-3.9-2-5.2-7.2-2.6-11.1l30.6-52.7c2-3.9 7.2-5.2 11.1-2.6 3.9 2 5.2 7.2 2.6 11.1l-30.6 52.7c-1.3 2.6-3.9 3.9-7.2 3.9zM741.5 228.3c-2.6 0-5.2-1.3-7.2-3.9-2-3.9-.7-8.5 2.6-11.1l52.7-30.6c3.9-2 8.5-.7 11.1 2.6 2 3.9.7 8.5-2.6 11.1L745.4 227c-1.3 1.3-2.6 1.3-3.9 1.3z"></path><path d="M1062.1 48.1c14.3 153.5 19.5 307 15 461.1-288.8 3.3-578.2 3.3-867 0-3.9-153.5 1.3-307.6 15.6-461.1 279-9.1 557.4-9.1 836.4 0m15-39C787-2.6 498.2-2.6 208.1 9.1c-11.1.7-19.5 7.2-20.8 18.9-16.3 169.1-22.1 336.9-17.6 506.7.7 11.7 8.5 23.4 20.2 24.1 301.8 4.6 603.6 4.6 905.4 0 11.7 0 22.1-12.4 22.1-24.1 4.6-169.8-2-336.9-18.2-506-.7-13.1-10.4-19.6-22.1-19.6z"></path></g><defs data-v-fde0c5aa=""><!----></defs><g data-v-fde0c5aa="" id="713a149a-0b40-4e1a-9cbe-489958720576" fill="#022239" transform="matrix(0.36028379927277454,0,0,0.36028379927277454,51.783035236011244,189.86070682784575)"><path d="M1.99 12.43L1.99 12.43L1.99 12.43Q1.99 11.45 2.22 10.51L2.22 10.51L2.22 10.51Q2.45 9.56 2.87 8.71L2.87 8.71L2.87 8.71Q3.29 7.87 3.87 7.16L3.87 7.16L3.87 7.16Q4.45 6.45 5.15 5.94L5.15 5.94L5.15 5.94Q5.84 5.42 6.62 5.13L6.62 5.13L6.62 5.13Q7.41 4.84 8.23 4.84L8.23 4.84L8.23 4.84Q9.20 4.84 9.74 5.25L9.74 5.25L9.74 5.25Q10.28 5.66 10.28 6.38L10.28 6.38L10.28 6.38Q10.28 6.66 10.20 6.96L10.20 6.96L10.20 6.96Q10.12 7.25 9.97 7.54L9.97 7.54L9.97 7.54Q9.83 7.83 9.63 8.09L9.63 8.09L9.63 8.09Q9.44 8.36 9.20 8.55L9.20 8.55L9.20 8.55Q8.83 8.50 8.57 8.22L8.57 8.22L8.57 8.22Q8.30 7.95 8.23 7.59L8.23 7.59L8.23 7.59Q8.72 7.18 9.01 6.74L9.01 6.74L9.01 6.74Q9.30 6.30 9.30 5.94L9.30 5.94L9.30 5.94Q9.30 5.32 8.53 5.32L8.53 5.32L8.53 5.32Q8.20 5.32 7.86 5.45L7.86 5.45L7.86 5.45Q7.52 5.59 7.17 5.82L7.17 5.82L7.17 5.82Q6.82 6.06 6.49 6.40L6.49 6.40L6.49 6.40Q6.16 6.73 5.88 7.14L5.88 7.14L5.88 7.14Q3.93 9.94 3.93 12.87L3.93 12.87L3.93 12.87Q3.93 13.90 4.26 14.53L4.26 14.53L4.26 14.53Q4.58 15.16 5.11 15.27L5.11 15.27L5.11 15.27Q5.71 15.13 6.64 14.50L6.64 14.50L6.64 14.50Q7.56 13.87 8.65 12.87L8.65 12.87L8.65 12.87Q8.79 13.01 8.82 13.16L8.82 13.16L8.82 13.16Q8.41 13.69 7.98 14.18L7.98 14.18L7.98 14.18Q7.55 14.67 7.12 15.08L7.12 15.08L7.12 15.08Q6.69 15.48 6.28 15.79L6.28 15.79L6.28 15.79Q5.87 16.10 5.52 16.27L5.52 16.27L5.52 16.27Q3.78 16.24 2.88 15.27L2.88 15.27L2.88 15.27Q1.99 14.31 1.99 12.43ZM26.39 7.46L26.39 7.46L26.39 7.46Q26.39 8.13 26.09 8.73L26.09 8.73L26.09 8.73Q25.79 9.32 25.26 9.79L25.26 9.79L25.26 9.79Q24.72 10.26 24.01 10.58L24.01 10.58L24.01 10.58Q23.30 10.91 22.46 11.02L22.46 11.02L22.46 11.02Q22.67 11.65 22.97 12.31L22.97 12.31L22.97 12.31Q23.27 12.98 23.62 13.59L23.62 13.59L23.62 13.59Q23.97 14.21 24.35 14.73L24.35 14.73L24.35 14.73Q24.72 15.25 25.09 15.58L25.09 15.58L25.09 15.58Q25.02 15.72 24.88 15.86L24.88 15.86L24.88 15.86Q24.75 16.00 24.58 16.12L24.58 16.12L24.58 16.12Q24.40 16.24 24.21 16.32L24.21 16.32L24.21 16.32Q24.02 16.39 23.86 16.39L23.86 16.39L23.86 16.39Q23.55 16.39 23.27 16.10L23.27 16.10L23.27 16.10Q22.99 15.81 22.70 15.17L22.70 15.17L22.70 15.17Q22.41 14.53 22.10 13.52L22.10 13.52L22.10 13.52Q21.78 12.50 21.41 11.07L21.41 11.07L21.41 11.07Q21.25 11.07 21.10 11.07L21.10 11.07L21.10 11.07Q20.94 11.07 20.86 11.05L20.86 11.05L20.86 11.05Q20.76 10.99 20.65 10.85L20.65 10.85L20.65 10.85Q20.27 11.66 19.98 12.38L19.98 12.38L19.98 12.38Q19.68 13.09 19.45 13.76L19.45 13.76L19.45 13.76Q19.22 14.42 19.05 15.04L19.05 15.04L19.05 15.04Q18.87 15.67 18.75 16.31L18.75 16.31L18.75 16.31Q18.27 16.20 17.92 15.90L17.92 15.90L17.92 15.90Q17.57 15.61 17.26 15.08L17.26 15.08L17.26 15.08Q17.32 14.95 17.38 14.83L17.38 14.83L17.38 14.83Q17.44 14.71 17.54 14.50L17.54 14.50L17.54 14.50Q17.64 14.28 17.79 13.94L17.79 13.94L17.79 13.94Q17.93 13.61 18.18 13.05L18.18 13.05L18.18 13.05Q18.42 12.49 18.77 11.68L18.77 11.68L18.77 11.68Q19.11 10.86 19.60 9.70L19.60 9.70L19.60 9.70Q19.82 9.18 19.98 8.79L19.98 8.79L19.98 8.79Q20.15 8.40 20.27 8.04L20.27 8.04L20.27 8.04Q20.40 7.69 20.50 7.33L20.50 7.33L20.50 7.33Q20.61 6.97 20.72 6.51L20.72 6.51L20.72 6.51Q20.08 6.73 19.52 7.01L19.52 7.01L19.52 7.01Q18.97 7.28 18.61 7.59L18.61 7.59L18.61 7.59Q18.48 7.50 18.35 7.34L18.35 7.34L18.35 7.34Q18.21 7.17 18.10 6.96L18.10 6.96L18.10 6.96Q17.99 6.76 17.91 6.55L17.91 6.55L17.91 6.55Q17.82 6.34 17.81 6.17L17.81 6.17L17.81 6.17Q18.23 5.89 18.84 5.66L18.84 5.66L18.84 5.66Q19.45 5.42 20.13 5.24L20.13 5.24L20.13 5.24Q20.82 5.07 21.53 4.97L21.53 4.97L21.53 4.97Q22.25 4.87 22.86 4.87L22.86 4.87L22.86 4.87Q24.54 4.87 25.47 5.56L25.47 5.56L25.47 5.56Q26.39 6.26 26.39 7.46ZM22.81 6.02L22.97 6.29L22.97 6.29Q22.88 6.41 22.67 6.79L22.67 6.79L22.67 6.79Q22.46 7.17 22.18 7.69L22.18 7.69L22.18 7.69Q21.91 8.22 21.61 8.83L21.61 8.83L21.61 8.83Q21.31 9.45 21.03 10.05L21.03 10.05L21.03 10.05Q22.08 10.05 22.96 9.86L22.96 9.86L22.96 9.86Q23.84 9.66 24.49 9.30L24.49 9.30L24.49 9.30Q25.13 8.95 25.49 8.46L25.49 8.46L25.49 8.46Q25.84 7.98 25.84 7.39L25.84 7.39L25.84 7.39Q25.84 6.69 25.34 6.32L25.34 6.32L25.34 6.32Q24.84 5.95 23.79 5.95L23.79 5.95L23.79 5.95Q23.55 5.95 23.31 5.97L23.31 5.97L23.31 5.97Q23.07 5.99 22.81 6.02L22.81 6.02ZM39.21 9.21L39.21 9.21L39.21 9.21Q39.68 9.21 39.94 9.46L39.94 9.46L39.94 9.46Q40.19 9.72 40.19 10.16L40.19 10.16L40.19 10.16Q40.19 10.28 40.17 10.39L40.17 10.39L40.17 10.39Q40.15 10.51 40.12 10.60L40.12 10.60L40.12 10.60Q39.94 10.57 39.72 10.55L39.72 10.55L39.72 10.55Q39.49 10.53 39.19 10.53L39.19 10.53L39.19 10.53Q38.58 10.53 37.97 10.63L37.97 10.63L37.97 10.63Q37.35 10.74 36.79 10.81L36.79 10.81L36.79 10.81Q36.47 11.55 36.20 12.24L36.20 12.24L36.20 12.24Q35.94 12.94 35.75 13.51L35.75 13.51L35.75 13.51Q35.56 14.08 35.45 14.50L35.45 14.50L35.45 14.50Q35.35 14.92 35.34 15.13L35.34 15.13L35.34 15.13Q36.47 14.90 37.63 14.73L37.63 14.73L37.63 14.73Q38.78 14.56 40.05 14.48L40.05 14.48L40.05 14.48Q40.21 14.71 40.31 14.99L40.31 14.99L40.31 14.99Q40.42 15.27 40.42 15.60L40.42 15.60L40.42 15.60Q40.42 15.68 40.42 15.78L40.42 15.78L40.42 15.78Q40.42 15.88 40.39 15.97L40.39 15.97L40.39 15.97Q40.00 15.96 39.56 15.95L39.56 15.95L39.56 15.95Q39.13 15.95 38.43 15.95L38.43 15.95L38.43 15.95Q37.97 15.95 37.55 15.97L37.55 15.97L37.55 15.97Q37.14 15.99 36.72 16.03L36.72 16.03L36.72 16.03Q36.30 16.07 35.83 16.14L35.83 16.14L35.83 16.14Q35.36 16.21 34.78 16.31L34.78 16.31L34.78 16.31Q34.13 16.06 33.53 15.08L33.53 15.08L33.53 15.08Q33.77 14.57 34.20 13.54L34.20 13.54L34.20 13.54Q34.62 12.52 35.28 10.79L35.28 10.79L35.28 10.79Q34.65 10.60 34.45 10.09L34.45 10.09L34.45 10.09Q34.52 10.02 34.86 9.92L34.86 9.92L34.86 9.92Q35.20 9.81 35.69 9.70L35.69 9.70L35.69 9.70Q35.90 9.16 36.04 8.75L36.04 8.75L36.04 8.75Q36.19 8.34 36.30 7.99L36.30 7.99L36.30 7.99Q36.41 7.63 36.51 7.29L36.51 7.29L36.51 7.29Q36.60 6.94 36.68 6.54L36.68 6.54L36.68 6.54Q36.19 6.51 35.91 6.27L35.91 6.27L35.91 6.27Q35.63 6.02 35.63 5.63L35.63 5.63L35.63 5.63Q35.63 5.52 35.66 5.36L35.66 5.36L35.66 5.36Q35.70 5.21 35.74 5.10L35.74 5.10L35.74 5.10Q36.02 5.14 36.28 5.15L36.28 5.15L36.28 5.15Q36.54 5.17 36.96 5.17L36.96 5.17L36.96 5.17Q37.84 5.17 38.61 5.12L38.61 5.12L38.61 5.12Q39.38 5.07 40.01 5.01L40.01 5.01L40.01 5.01Q40.63 4.96 41.08 4.91L41.08 4.91L41.08 4.91Q41.52 4.86 41.76 4.86L41.76 4.86L41.76 4.86Q42.08 4.86 42.34 5.19L42.34 5.19L42.34 5.19Q42.59 5.53 42.71 6.15L42.71 6.15L42.71 6.15Q42.28 6.10 42.01 6.09L42.01 6.09L42.01 6.09Q41.73 6.08 41.52 6.08L41.52 6.08L41.52 6.08Q40.75 6.08 40.12 6.15L40.12 6.15L40.12 6.15Q39.48 6.23 38.89 6.31L38.89 6.31L38.89 6.31Q38.81 6.44 38.70 6.64L38.70 6.64L38.70 6.64Q38.60 6.83 38.43 7.18L38.43 7.18L38.43 7.18Q38.26 7.53 38.02 8.06L38.02 8.06L38.02 8.06Q37.77 8.60 37.42 9.39L37.42 9.39L37.42 9.39Q37.95 9.31 38.42 9.26L38.42 9.26L38.42 9.26Q38.89 9.21 39.21 9.21ZM49.59 16.24L49.59 16.24L49.59 16.24Q48.92 16.04 48.66 15.85L48.66 15.85L48.66 15.85Q48.40 15.65 48.40 15.36L48.40 15.36L48.40 15.36Q48.40 15.13 48.52 14.73L48.52 14.73L48.52 14.73Q48.65 14.32 48.89 13.77L48.89 13.77L48.89 13.77Q49.14 13.22 49.48 12.54L49.48 12.54L49.48 12.54Q49.83 11.87 50.26 11.10L50.26 11.10L50.26 11.10Q49.90 11.09 49.61 11.08L49.61 11.08L49.61 11.08Q49.32 11.07 49.14 11.07L49.14 11.07L49.14 11.07Q49.22 10.86 49.62 10.71L49.62 10.71L49.62 10.71Q50.01 10.56 50.65 10.44L50.65 10.44L50.65 10.44Q51.20 9.53 51.82 8.71L51.82 8.71L51.82 8.71Q52.44 7.88 53.07 7.19L53.07 7.19L53.07 7.19Q53.70 6.50 54.33 5.97L54.33 5.97L54.33 5.97Q54.96 5.45 55.54 5.14L55.54 5.14L55.54 5.14Q55.55 5.04 55.56 4.97L55.56 4.97L55.56 4.97Q55.57 4.90 55.57 4.87L55.57 4.87L55.57 4.87Q55.76 4.87 56.09 4.97L56.09 4.97L56.09 4.97Q56.42 5.07 56.73 5.21L56.73 5.21L56.73 5.21Q57.05 5.35 57.29 5.49L57.29 5.49L57.29 5.49Q57.54 5.64 57.57 5.74L57.57 5.74L57.57 5.74Q57.11 6.55 56.66 8.17L56.66 8.17L56.66 8.17Q56.21 9.79 55.92 12.04L55.92 12.04L55.92 12.04Q55.85 12.60 55.80 13.31L55.80 13.31L55.80 13.31Q55.75 14.03 55.75 14.91L55.75 14.91L55.75 14.91Q55.75 15.22 55.75 15.54L55.75 15.54L55.75 15.54Q55.75 15.86 55.78 16.21L55.78 16.21L55.78 16.21Q55.75 16.23 55.72 16.23L55.72 16.23L55.72 16.23Q55.69 16.23 55.61 16.23L55.61 16.23L55.61 16.23Q55.41 16.23 55.15 16.16L55.15 16.16L55.15 16.16Q54.89 16.10 54.65 16.01L54.65 16.01L54.65 16.01Q54.40 15.92 54.23 15.81L54.23 15.81L54.23 15.81Q54.05 15.69 54.01 15.61L54.01 15.61L54.01 15.61Q54.00 15.43 54.00 15.25L54.00 15.25L54.00 15.25Q54.00 15.08 54.00 14.88L54.00 14.88L54.00 14.88Q54.00 14.01 54.06 13.12L54.06 13.12L54.06 13.12Q54.12 12.22 54.28 11.27L54.28 11.27L54.28 11.27Q54.08 11.26 53.76 11.23L53.76 11.23L53.76 11.23Q53.44 11.21 53.04 11.20L53.04 11.20L53.04 11.20Q52.64 11.19 52.18 11.16L52.18 11.16L52.18 11.16Q51.73 11.14 51.30 11.13L51.30 11.13L51.30 11.13Q50.96 11.76 50.67 12.38L50.67 12.38L50.67 12.38Q50.37 13.01 50.16 13.64L50.16 13.64L50.16 13.64Q49.92 14.31 49.78 14.98L49.78 14.98L49.78 14.98Q49.63 15.65 49.59 16.24ZM54.99 7.83L54.99 7.83L54.99 7.83Q55.05 7.63 55.13 7.29L55.13 7.29L55.13 7.29Q55.20 6.94 55.27 6.57L55.27 6.57L55.27 6.57Q54.92 6.69 54.49 7.03L54.49 7.03L54.49 7.03Q54.07 7.36 53.61 7.86L53.61 7.86L53.61 7.86Q53.16 8.36 52.69 8.98L52.69 8.98L52.69 8.98Q52.22 9.60 51.79 10.30L51.79 10.30L51.79 10.30Q52.96 10.21 54.46 10.18L54.46 10.18L54.46 10.18Q54.57 9.59 54.70 9.01L54.70 9.01L54.70 9.01Q54.84 8.43 54.99 7.83ZM67.14 6.69L67.14 6.69L67.14 6.69Q66.58 6.69 66.28 6.38L66.28 6.38L66.28 6.38Q65.98 6.06 65.98 5.61L65.98 5.61L65.98 5.61Q65.98 5.50 66.02 5.35L66.02 5.35L66.02 5.35Q66.05 5.19 66.11 5.08L66.11 5.08L66.11 5.08Q66.29 5.17 66.65 5.20L66.65 5.20L66.65 5.20Q67.00 5.24 67.48 5.24L67.48 5.24L67.48 5.24Q68.19 5.24 69.10 5.17L69.10 5.17L69.10 5.17Q70 5.11 70.83 5.04L70.83 5.04L70.83 5.04Q71.65 4.97 72.28 4.91L72.28 4.91L72.28 4.91Q72.91 4.84 73.09 4.84L73.09 4.84L73.09 4.84Q73.61 4.84 73.84 5.23L73.84 5.23L73.84 5.23Q74.07 5.61 74.19 6.26L74.19 6.26L74.19 6.26Q73.82 6.23 73.47 6.21L73.47 6.21L73.47 6.21Q73.11 6.19 72.86 6.19L72.86 6.19L72.86 6.19Q72.41 6.19 71.95 6.22L71.95 6.22L71.95 6.22Q71.50 6.24 71.04 6.30L71.04 6.30L71.04 6.30Q70.84 6.71 70.60 7.26L70.60 7.26L70.60 7.26Q70.36 7.81 70.13 8.41L70.13 8.41L70.13 8.41Q69.90 9.02 69.69 9.61L69.69 9.61L69.69 9.61Q69.48 10.21 69.33 10.68L69.33 10.68L69.33 10.68Q69.02 11.61 68.79 12.39L68.79 12.39L68.79 12.39Q68.56 13.17 68.38 13.85L68.38 13.85L68.38 13.85Q68.21 14.53 68.08 15.15L68.08 15.15L68.08 15.15Q67.96 15.76 67.86 16.35L67.86 16.35L67.86 16.35Q66.92 16.21 66.29 15.18L66.29 15.18L66.29 15.18Q66.40 14.74 66.56 14.23L66.56 14.23L66.56 14.23Q66.72 13.72 66.94 13.07L66.94 13.07L66.94 13.07Q67.16 12.42 67.45 11.59L67.45 11.59L67.45 11.59Q67.75 10.77 68.12 9.72L68.12 9.72L68.12 9.72Q68.26 9.32 68.42 8.90L68.42 8.90L68.42 8.90Q68.57 8.47 68.72 8.05L68.72 8.05L68.72 8.05Q68.87 7.63 68.98 7.24L68.98 7.24L68.98 7.24Q69.10 6.85 69.19 6.52L69.19 6.52L69.19 6.52Q68.60 6.59 68.08 6.64L68.08 6.64L68.08 6.64Q67.55 6.69 67.14 6.69ZM80.02 14.38L80.02 14.38L80.02 14.38Q80.02 13.87 80.19 13.07L80.19 13.07L80.19 13.07Q80.35 12.26 80.61 11.33L80.61 11.33L80.61 11.33Q80.86 10.40 81.20 9.43L81.20 9.43L81.20 9.43Q81.54 8.46 81.89 7.60L81.89 7.60L81.89 7.60Q82.24 6.75 82.57 6.10L82.57 6.10L82.57 6.10Q82.91 5.46 83.17 5.18L83.17 5.18L83.17 5.18Q83.31 5.19 83.55 5.29L83.55 5.29L83.55 5.29Q83.78 5.38 84.01 5.50L84.01 5.50L84.01 5.50Q84.25 5.63 84.45 5.78L84.45 5.78L84.45 5.78Q84.64 5.92 84.70 6.05L84.70 6.05L84.70 6.05Q84.29 6.41 83.89 7.15L83.89 7.15L83.89 7.15Q83.50 7.88 83.13 8.82L83.13 8.82L83.13 8.82Q82.75 9.76 82.43 10.80L82.43 10.80L82.43 10.80Q82.11 11.84 81.87 12.82L81.87 12.82L81.87 12.82Q81.63 13.80 81.50 14.64L81.50 14.64L81.50 14.64Q81.37 15.48 81.37 16.00L81.37 16.00L81.37 16.00Q81.37 16.24 81.41 16.30L81.41 16.30L81.41 16.30Q81.10 16.28 80.96 16.19L80.96 16.19L80.96 16.19Q80.82 16.10 80.75 16.00L80.75 16.00L80.75 16.00Q80.67 15.89 80.61 15.79L80.61 15.79L80.61 15.79Q80.54 15.68 80.42 15.62L80.42 15.62L80.42 15.62Q80.32 15.58 80.25 15.43L80.25 15.43L80.25 15.43Q80.18 15.27 80.13 15.09L80.13 15.09L80.13 15.09Q80.08 14.90 80.05 14.70L80.05 14.70L80.05 14.70Q80.02 14.50 80.02 14.38ZM95.47 16.07L95.47 16.07L95.47 16.07Q95.14 16.24 94.78 16.24L94.78 16.24L94.78 16.24Q94.33 16.18 93.92 16.02L93.92 16.02L93.92 16.02Q93.51 15.85 93.31 15.61L93.31 15.61L93.31 15.61Q93.20 14.92 93.13 14.35L93.13 14.35L93.13 14.35Q93.06 13.78 93.02 13.27L93.02 13.27L93.02 13.27Q92.97 12.75 92.96 12.29L92.96 12.29L92.96 12.29Q92.95 11.82 92.95 11.34L92.95 11.34L92.95 11.34Q92.95 10.71 92.96 10.01L92.96 10.01L92.96 10.01Q92.97 9.31 92.99 8.52L92.99 8.52L92.99 8.52Q93.02 7.73 93.03 6.82L93.03 6.82L93.03 6.82Q93.04 5.92 93.04 4.86L93.04 4.86L93.04 4.86Q93.23 4.86 93.59 4.96L93.59 4.96L93.59 4.96Q93.95 5.07 94.31 5.21L94.31 5.21L94.31 5.21Q94.67 5.35 94.95 5.49L94.95 5.49L94.95 5.49Q95.23 5.64 95.26 5.74L95.26 5.74L95.26 5.74Q95.12 6.13 95.01 6.76L95.01 6.76L95.01 6.76Q94.91 7.39 94.84 8.16L94.84 8.16L94.84 8.16Q94.78 8.93 94.75 9.79L94.75 9.79L94.75 9.79Q94.72 10.64 94.72 11.48L94.72 11.48L94.72 11.48Q94.72 12.11 94.74 12.61L94.74 12.61L94.74 12.61Q94.75 13.10 94.77 13.50L94.77 13.50L94.77 13.50Q94.79 13.90 94.84 14.25L94.84 14.25L94.84 14.25Q94.88 14.59 94.93 14.92L94.93 14.92L94.93 14.92Q95.33 13.73 95.79 12.54L95.79 12.54L95.79 12.54Q96.26 11.35 96.76 10.25L96.76 10.25L96.76 10.25Q97.26 9.16 97.75 8.20L97.75 8.20L97.75 8.20Q98.24 7.25 98.68 6.54L98.68 6.54L98.68 6.54Q99.12 5.84 99.47 5.43L99.47 5.43L99.47 5.43Q99.82 5.01 100.04 4.98L100.04 4.98L100.04 4.98Q100.20 5.01 100.37 5.10L100.37 5.10L100.37 5.10Q100.55 5.19 100.70 5.32L100.70 5.32L100.70 5.32Q100.86 5.45 100.98 5.60L100.98 5.60L100.98 5.60Q101.11 5.75 101.18 5.91L101.18 5.91L101.18 5.91Q100.66 6.09 100.06 6.76L100.06 6.76L100.06 6.76Q99.47 7.43 98.87 8.38L98.87 8.38L98.87 8.38Q98.27 9.32 97.70 10.44L97.70 10.44L97.70 10.44Q97.13 11.55 96.68 12.61L96.68 12.61L96.68 12.61Q96.22 13.68 95.90 14.60L95.90 14.60L95.90 14.60Q95.58 15.53 95.47 16.07ZM112.43 9.21L112.43 9.21L112.43 9.21Q112.90 9.21 113.16 9.46L113.16 9.46L113.16 9.46Q113.41 9.72 113.41 10.16L113.41 10.16L113.41 10.16Q113.41 10.28 113.39 10.39L113.39 10.39L113.39 10.39Q113.37 10.51 113.34 10.60L113.34 10.60L113.34 10.60Q113.16 10.57 112.94 10.55L112.94 10.55L112.94 10.55Q112.71 10.53 112.41 10.53L112.41 10.53L112.41 10.53Q111.80 10.53 111.19 10.63L111.19 10.63L111.19 10.63Q110.57 10.74 110.01 10.81L110.01 10.81L110.01 10.81Q109.69 11.55 109.42 12.24L109.42 12.24L109.42 12.24Q109.16 12.94 108.97 13.51L108.97 13.51L108.97 13.51Q108.78 14.08 108.67 14.50L108.67 14.50L108.67 14.50Q108.57 14.92 108.56 15.13L108.56 15.13L108.56 15.13Q109.69 14.90 110.84 14.73L110.84 14.73L110.84 14.73Q112 14.56 113.27 14.48L113.27 14.48L113.27 14.48Q113.43 14.71 113.53 14.99L113.53 14.99L113.53 14.99Q113.64 15.27 113.64 15.60L113.64 15.60L113.64 15.60Q113.64 15.68 113.64 15.78L113.64 15.78L113.64 15.78Q113.64 15.88 113.61 15.97L113.61 15.97L113.61 15.97Q113.22 15.96 112.78 15.95L112.78 15.95L112.78 15.95Q112.35 15.95 111.65 15.95L111.65 15.95L111.65 15.95Q111.19 15.95 110.78 15.97L110.78 15.97L110.78 15.97Q110.36 15.99 109.94 16.03L109.94 16.03L109.94 16.03Q109.52 16.07 109.05 16.14L109.05 16.14L109.05 16.14Q108.58 16.21 108.00 16.31L108.00 16.31L108.00 16.31Q107.35 16.06 106.75 15.08L106.75 15.08L106.75 15.08Q106.99 14.57 107.42 13.54L107.42 13.54L107.42 13.54Q107.84 12.52 108.50 10.79L108.50 10.79L108.50 10.79Q107.87 10.60 107.67 10.09L107.67 10.09L107.67 10.09Q107.74 10.02 108.08 9.92L108.08 9.92L108.08 9.92Q108.42 9.81 108.91 9.70L108.91 9.70L108.91 9.70Q109.12 9.16 109.26 8.75L109.26 8.75L109.26 8.75Q109.41 8.34 109.52 7.99L109.52 7.99L109.52 7.99Q109.63 7.63 109.72 7.29L109.72 7.29L109.72 7.29Q109.82 6.94 109.90 6.54L109.90 6.54L109.90 6.54Q109.41 6.51 109.13 6.27L109.13 6.27L109.13 6.27Q108.85 6.02 108.85 5.63L108.85 5.63L108.85 5.63Q108.85 5.52 108.89 5.36L108.89 5.36L108.89 5.36Q108.92 5.21 108.96 5.10L108.96 5.10L108.96 5.10Q109.24 5.14 109.50 5.15L109.50 5.15L109.50 5.15Q109.76 5.17 110.18 5.17L110.18 5.17L110.18 5.17Q111.06 5.17 111.83 5.12L111.83 5.12L111.83 5.12Q112.60 5.07 113.22 5.01L113.22 5.01L113.22 5.01Q113.85 4.96 114.30 4.91L114.30 4.91L114.30 4.91Q114.74 4.86 114.98 4.86L114.98 4.86L114.98 4.86Q115.30 4.86 115.56 5.19L115.56 5.19L115.56 5.19Q115.81 5.53 115.93 6.15L115.93 6.15L115.93 6.15Q115.50 6.10 115.23 6.09L115.23 6.09L115.23 6.09Q114.95 6.08 114.74 6.08L114.74 6.08L114.74 6.08Q113.97 6.08 113.34 6.15L113.34 6.15L113.34 6.15Q112.70 6.23 112.11 6.31L112.11 6.31L112.11 6.31Q112.03 6.44 111.92 6.64L111.92 6.64L111.92 6.64Q111.82 6.83 111.65 7.18L111.65 7.18L111.65 7.18Q111.48 7.53 111.24 8.06L111.24 8.06L111.24 8.06Q110.99 8.60 110.64 9.39L110.64 9.39L110.64 9.39Q111.17 9.31 111.64 9.26L111.64 9.26L111.64 9.26Q112.11 9.21 112.43 9.21ZM134.30 15.61L134.30 15.61L134.30 15.61Q134.23 15.04 134.20 14.36L134.20 14.36L134.20 14.36Q134.16 13.68 134.16 13.09L134.16 13.09L134.16 13.09Q134.16 12.15 134.22 11.29L134.22 11.29L134.22 11.29Q134.29 10.43 134.38 9.48L134.38 9.48L134.38 9.48Q134.47 8.54 134.58 7.43L134.58 7.43L134.58 7.43Q134.69 6.31 134.78 4.86L134.78 4.86L134.78 4.86Q134.96 4.86 135.30 4.96L135.30 4.96L135.30 4.96Q135.65 5.07 136.00 5.21L136.00 5.21L136.00 5.21Q136.35 5.35 136.61 5.49L136.61 5.49L136.61 5.49Q136.88 5.64 136.92 5.74L136.92 5.74L136.92 5.74Q136.68 6.29 136.49 7.18L136.49 7.18L136.49 7.18Q136.30 8.06 136.18 9.11L136.18 9.11L136.18 9.11Q136.05 10.16 135.98 11.27L135.98 11.27L135.98 11.27Q135.91 12.38 135.91 13.34L135.91 13.34L135.91 13.34Q135.91 13.79 135.93 14.22L135.93 14.22L135.93 14.22Q135.94 14.66 135.97 15.02L135.97 15.02L135.97 15.02Q136.26 14.59 136.65 13.78L136.65 13.78L136.65 13.78Q137.03 12.98 137.44 11.98L137.44 11.98L137.44 11.98Q137.86 10.99 138.27 9.91L138.27 9.91L138.27 9.91Q138.68 8.82 139.03 7.83L139.03 7.83L139.03 7.83Q139.38 6.85 139.63 6.05L139.63 6.05L139.63 6.05Q139.87 5.26 139.97 4.86L139.97 4.86L139.97 4.86Q140.15 4.86 140.51 4.96L140.51 4.96L140.51 4.96Q140.87 5.07 141.21 5.21L141.21 5.21L141.21 5.21Q141.55 5.35 141.82 5.49L141.82 5.49L141.82 5.49Q142.09 5.64 142.11 5.74L142.11 5.74L142.11 5.74Q141.88 6.29 141.69 7.18L141.69 7.18L141.69 7.18Q141.50 8.06 141.37 9.11L141.37 9.11L141.37 9.11Q141.25 10.16 141.18 11.27L141.18 11.27L141.18 11.27Q141.11 12.38 141.11 13.34L141.11 13.34L141.11 13.34Q141.11 13.75 141.11 14.15L141.11 14.15L141.11 14.15Q141.12 14.55 141.15 14.87L141.15 14.87L141.15 14.87Q141.60 13.71 142.08 12.56L142.08 12.56L142.08 12.56Q142.56 11.42 143.04 10.38L143.04 10.38L143.04 10.38Q143.51 9.34 143.96 8.43L143.96 8.43L143.96 8.43Q144.41 7.53 144.79 6.82L144.79 6.82L144.79 6.82Q145.17 6.12 145.45 5.66L145.45 5.66L145.45 5.66Q145.73 5.19 145.88 5.04L145.88 5.04L145.88 5.04Q146.20 5.08 146.55 5.27L146.55 5.27L146.55 5.27Q146.89 5.46 147.15 5.75L147.15 5.75L147.15 5.75Q146.75 6.08 146.23 6.81L146.23 6.81L146.23 6.81Q145.71 7.55 145.17 8.51L145.17 8.51L145.17 8.51Q144.62 9.48 144.07 10.57L144.07 10.57L144.07 10.57Q143.51 11.66 143.04 12.70L143.04 12.70L143.04 12.70Q142.56 13.73 142.19 14.63L142.19 14.63L142.19 14.63Q141.82 15.53 141.62 16.07L141.62 16.07L141.62 16.07Q141.26 16.24 140.91 16.24L140.91 16.24L140.91 16.24Q140.46 16.18 140.06 16.02L140.06 16.02L140.06 16.02Q139.66 15.85 139.50 15.61L139.50 15.61L139.50 15.61Q139.45 15.39 139.43 15.09L139.43 15.09L139.43 15.09Q139.40 14.78 139.38 14.49L139.38 14.49L139.38 14.49Q139.37 14.20 139.36 13.92L139.36 13.92L139.36 13.92Q139.36 13.65 139.36 13.45L139.36 13.45L139.36 13.45Q139.36 12.21 139.45 10.91L139.45 10.91L139.45 10.91Q139.55 9.62 139.69 8.13L139.69 8.13L139.69 8.13Q139.37 9.09 138.98 10.18L138.98 10.18L138.98 10.18Q138.59 11.27 138.16 12.34L138.16 12.34L138.16 12.34Q137.73 13.41 137.29 14.38L137.29 14.38L137.29 14.38Q136.85 15.36 136.43 16.07L136.43 16.07L136.43 16.07Q136.07 16.24 135.72 16.24L135.72 16.24L135.72 16.24Q135.27 16.18 134.87 16.02L134.87 16.02L134.87 16.02Q134.47 15.85 134.30 15.61ZM159.31 4.98L159.31 4.98L159.31 4.98Q159.57 5.10 159.85 5.27L159.85 5.27L159.85 5.27Q160.13 5.45 160.37 5.63L160.37 5.63L160.37 5.63Q160.61 5.81 160.77 5.98L160.77 5.98L160.77 5.98Q160.93 6.16 160.94 6.27L160.94 6.27L160.94 6.27Q160.71 6.22 160.47 6.20L160.47 6.20L160.47 6.20Q160.23 6.17 160.03 6.17L160.03 6.17L160.03 6.17Q159.40 6.17 158.78 6.48L158.78 6.48L158.78 6.48Q158.16 6.79 157.60 7.32L157.60 7.32L157.60 7.32Q157.04 7.85 156.56 8.57L156.56 8.57L156.56 8.57Q156.09 9.28 155.74 10.09L155.74 10.09L155.74 10.09Q155.40 10.91 155.20 11.77L155.20 11.77L155.20 11.77Q155.01 12.64 155.01 13.48L155.01 13.48L155.01 13.48Q155.01 14.57 155.37 15.11L155.37 15.11L155.37 15.11Q155.74 15.64 156.44 15.64L156.44 15.64L156.44 15.64Q156.77 15.64 157.16 15.51L157.16 15.51L157.16 15.51Q157.56 15.37 157.96 15.13L157.96 15.13L157.96 15.13Q158.37 14.90 158.76 14.56L158.76 14.56L158.76 14.56Q159.15 14.22 159.49 13.82L159.49 13.82L159.49 13.82Q159.98 13.23 160.37 12.48L160.37 12.48L160.37 12.48Q160.76 11.73 161.04 10.89L161.04 10.89L161.04 10.89Q161.31 10.05 161.46 9.16L161.46 9.16L161.46 9.16Q161.60 8.27 161.60 7.42L161.60 7.42L161.60 7.42Q161.60 7.08 161.59 6.85L161.59 6.85L161.59 6.85Q161.57 6.62 161.55 6.46L161.55 6.46L161.55 6.46Q161.53 6.30 161.52 6.20L161.52 6.20L161.52 6.20Q161.50 6.10 161.49 6.03L161.49 6.03L161.49 6.03Q161.66 6.12 161.86 6.24L161.86 6.24L161.86 6.24Q162.06 6.36 162.24 6.59L162.24 6.59L162.24 6.59Q162.41 6.82 162.53 7.20L162.53 7.20L162.53 7.20Q162.65 7.57 162.65 8.18L162.65 8.18L162.65 8.18Q162.65 9.16 162.42 10.10L162.42 10.10L162.42 10.10Q162.19 11.05 161.78 11.90L161.78 11.90L161.78 11.90Q161.36 12.75 160.80 13.50L160.80 13.50L160.80 13.50Q160.24 14.24 159.60 14.80L159.60 14.80L159.60 14.80Q158.76 15.54 157.81 15.95L157.81 15.95L157.81 15.95Q156.86 16.35 155.97 16.35L155.97 16.35L155.97 16.35Q154.69 16.35 154.01 15.53L154.01 15.53L154.01 15.53Q153.33 14.71 153.33 13.12L153.33 13.12L153.33 13.12Q153.33 12.26 153.52 11.31L153.52 11.31L153.52 11.31Q153.71 10.36 154.05 9.44L154.05 9.44L154.05 9.44Q154.39 8.51 154.87 7.68L154.87 7.68L154.87 7.68Q155.34 6.85 155.91 6.21L155.91 6.21L155.91 6.21Q156.48 5.57 157.13 5.19L157.13 5.19L157.13 5.19Q157.78 4.82 158.47 4.82L158.47 4.82L158.47 4.82Q158.69 4.82 158.89 4.85L158.89 4.85L158.89 4.85Q159.08 4.89 159.31 4.98ZM179.49 7.46L179.49 7.46L179.49 7.46Q179.49 8.13 179.19 8.73L179.19 8.73L179.19 8.73Q178.89 9.32 178.36 9.79L178.36 9.79L178.36 9.79Q177.83 10.26 177.11 10.58L177.11 10.58L177.11 10.58Q176.40 10.91 175.56 11.02L175.56 11.02L175.56 11.02Q175.77 11.65 176.07 12.31L176.07 12.31L176.07 12.31Q176.37 12.98 176.72 13.59L176.72 13.59L176.72 13.59Q177.07 14.21 177.45 14.73L177.45 14.73L177.45 14.73Q177.83 15.25 178.19 15.58L178.19 15.58L178.19 15.58Q178.12 15.72 177.99 15.86L177.99 15.86L177.99 15.86Q177.86 16.00 177.68 16.12L177.68 16.12L177.68 16.12Q177.51 16.24 177.32 16.32L177.32 16.32L177.32 16.32Q177.13 16.39 176.96 16.39L176.96 16.39L176.96 16.39Q176.65 16.39 176.37 16.10L176.37 16.10L176.37 16.10Q176.09 15.81 175.81 15.17L175.81 15.17L175.81 15.17Q175.52 14.53 175.20 13.52L175.20 13.52L175.20 13.52Q174.89 12.50 174.51 11.07L174.51 11.07L174.51 11.07Q174.36 11.07 174.20 11.07L174.20 11.07L174.20 11.07Q174.05 11.07 173.96 11.05L173.96 11.05L173.96 11.05Q173.87 10.99 173.75 10.85L173.75 10.85L173.75 10.85Q173.38 11.66 173.08 12.38L173.08 12.38L173.08 12.38Q172.79 13.09 172.56 13.76L172.56 13.76L172.56 13.76Q172.33 14.42 172.15 15.04L172.15 15.04L172.15 15.04Q171.98 15.67 171.85 16.31L171.85 16.31L171.85 16.31Q171.37 16.20 171.02 15.90L171.02 15.90L171.02 15.90Q170.67 15.61 170.37 15.08L170.37 15.08L170.37 15.08Q170.42 14.95 170.49 14.83L170.49 14.83L170.49 14.83Q170.55 14.71 170.65 14.50L170.65 14.50L170.65 14.50Q170.74 14.28 170.89 13.94L170.89 13.94L170.89 13.94Q171.04 13.61 171.28 13.05L171.28 13.05L171.28 13.05Q171.53 12.49 171.87 11.68L171.87 11.68L171.87 11.68Q172.21 10.86 172.70 9.70L172.70 9.70L172.70 9.70Q172.93 9.18 173.09 8.79L173.09 8.79L173.09 8.79Q173.25 8.40 173.38 8.04L173.38 8.04L173.38 8.04Q173.50 7.69 173.61 7.33L173.61 7.33L173.61 7.33Q173.71 6.97 173.82 6.51L173.82 6.51L173.82 6.51Q173.18 6.73 172.63 7.01L172.63 7.01L172.63 7.01Q172.07 7.28 171.71 7.59L171.71 7.59L171.71 7.59Q171.58 7.50 171.45 7.34L171.45 7.34L171.45 7.34Q171.32 7.17 171.21 6.96L171.21 6.96L171.21 6.96Q171.09 6.76 171.01 6.55L171.01 6.55L171.01 6.55Q170.93 6.34 170.91 6.17L170.91 6.17L170.91 6.17Q171.33 5.89 171.94 5.66L171.94 5.66L171.94 5.66Q172.55 5.42 173.24 5.24L173.24 5.24L173.24 5.24Q173.92 5.07 174.64 4.97L174.64 4.97L174.64 4.97Q175.35 4.87 175.97 4.87L175.97 4.87L175.97 4.87Q177.65 4.87 178.57 5.56L178.57 5.56L178.57 5.56Q179.49 6.26 179.49 7.46ZM175.91 6.02L176.08 6.29L176.08 6.29Q175.98 6.41 175.77 6.79L175.77 6.79L175.77 6.79Q175.56 7.17 175.29 7.69L175.29 7.69L175.29 7.69Q175.01 8.22 174.71 8.83L174.71 8.83L174.71 8.83Q174.41 9.45 174.13 10.05L174.13 10.05L174.13 10.05Q175.18 10.05 176.06 9.86L176.06 9.86L176.06 9.86Q176.95 9.66 177.59 9.30L177.59 9.30L177.59 9.30Q178.23 8.95 178.59 8.46L178.59 8.46L178.59 8.46Q178.95 7.98 178.95 7.39L178.95 7.39L178.95 7.39Q178.95 6.69 178.44 6.32L178.44 6.32L178.44 6.32Q177.94 5.95 176.89 5.95L176.89 5.95L176.89 5.95Q176.65 5.95 176.41 5.97L176.41 5.97L176.41 5.97Q176.18 5.99 175.91 6.02L175.91 6.02ZM191.86 14.38L191.86 14.38L191.86 14.38Q192.21 14.98 192.21 15.54L192.21 15.54L192.21 15.54Q192.21 15.67 192.19 15.77L192.19 15.77L192.19 15.77Q192.16 15.88 192.14 15.99L192.14 15.99L192.14 15.99Q191.90 15.96 191.64 15.95L191.64 15.95L191.64 15.95Q191.38 15.93 191.10 15.93L191.10 15.93L191.10 15.93Q190.76 15.93 190.42 15.95L190.42 15.95L190.42 15.95Q190.08 15.97 189.66 16.02L189.66 16.02L189.66 16.02Q189.24 16.06 188.72 16.13L188.72 16.13L188.72 16.13Q188.20 16.20 187.52 16.31L187.52 16.31L187.52 16.31Q187.19 16.20 186.87 15.87L186.87 15.87L186.87 15.87Q186.55 15.54 186.27 15.08L186.27 15.08L186.27 15.08Q186.41 14.77 186.62 14.31L186.62 14.31L186.62 14.31Q186.83 13.86 187.11 13.21L187.11 13.21L187.11 13.21Q187.39 12.56 187.73 11.68L187.73 11.68L187.73 11.68Q188.08 10.81 188.47 9.66L188.47 9.66L188.47 9.66Q188.72 8.90 188.90 8.33L188.90 8.33L188.90 8.33Q189.08 7.76 189.23 7.22L189.23 7.22L189.23 7.22Q189.38 6.68 189.52 6.09L189.52 6.09L189.52 6.09Q189.66 5.50 189.83 4.73L189.83 4.73L189.83 4.73Q190.39 4.84 190.80 5.14L190.80 5.14L190.80 5.14Q191.21 5.45 191.59 6.01L191.59 6.01L191.59 6.01Q191.48 6.19 191.30 6.59L191.30 6.59L191.30 6.59Q191.11 7 190.87 7.58L190.87 7.58L190.87 7.58Q190.62 8.16 190.33 8.90L190.33 8.90L190.33 8.90Q190.04 9.63 189.71 10.47L189.71 10.47L189.71 10.47Q189.41 11.30 189.11 12.03L189.11 12.03L189.11 12.03Q188.82 12.75 188.59 13.34L188.59 13.34L188.59 13.34Q188.36 13.93 188.22 14.35L188.22 14.35L188.22 14.35Q188.08 14.77 188.08 14.98L188.08 14.98L188.08 14.98Q188.30 14.97 188.48 14.95L188.48 14.95L188.48 14.95Q188.66 14.94 188.86 14.90L188.86 14.90L188.86 14.90Q189.06 14.87 189.29 14.82L189.29 14.82L189.29 14.82Q189.52 14.77 189.84 14.69L189.84 14.69L189.84 14.69Q190.12 14.62 190.36 14.57L190.36 14.57L190.36 14.57Q190.60 14.52 190.83 14.48L190.83 14.48L190.83 14.48Q191.06 14.45 191.30 14.43L191.30 14.43L191.30 14.43Q191.55 14.41 191.86 14.38ZM201.18 14.45L201.18 14.45L201.18 14.45Q201.39 13.99 201.68 13.26L201.68 13.26L201.68 13.26Q201.98 12.53 202.30 11.68L202.30 11.68L202.30 11.68Q202.62 10.84 202.96 9.95L202.96 9.95L202.96 9.95Q203.29 9.06 203.59 8.26L203.59 8.26L203.59 8.26Q203.88 7.46 204.10 6.83L204.10 6.83L204.10 6.83Q204.32 6.20 204.41 5.87L204.41 5.87L204.41 5.87Q203.53 6.23 202.90 6.97L202.90 6.97L202.90 6.97Q202.27 7.71 201.95 8.83L201.95 8.83L201.95 8.83Q201.63 8.72 201.36 8.43L201.36 8.43L201.36 8.43Q201.10 8.15 201.01 7.71L201.01 7.71L201.01 7.71Q201.15 7.07 201.54 6.54L201.54 6.54L201.54 6.54Q201.92 6.01 202.51 5.63L202.51 5.63L202.51 5.63Q203.10 5.25 203.87 5.05L203.87 5.05L203.87 5.05Q204.64 4.84 205.52 4.84L205.52 4.84L205.52 4.84Q206.64 4.84 207.58 5.17L207.58 5.17L207.58 5.17Q208.52 5.50 209.19 6.09L209.19 6.09L209.19 6.09Q209.86 6.68 210.24 7.50L210.24 7.50L210.24 7.50Q210.62 8.33 210.62 9.34L210.62 9.34L210.62 9.34Q210.62 10.71 210.11 11.96L210.11 11.96L210.11 11.96Q209.61 13.20 208.75 14.15L208.75 14.15L208.75 14.15Q207.89 15.11 206.75 15.67L206.75 15.67L206.75 15.67Q205.62 16.24 204.37 16.24L204.37 16.24L204.37 16.24Q203.22 16.24 202.41 15.79L202.41 15.79L202.41 15.79Q201.59 15.33 201.18 14.45ZM206.12 5.54L206.12 5.54L206.12 5.54Q205.42 5.54 204.79 5.74L204.79 5.74L204.79 5.74Q205.41 5.96 205.81 6.21L205.81 6.21L205.81 6.21Q206.22 6.45 206.37 6.59L206.37 6.59L206.37 6.59Q206.26 6.75 206.05 7.14L206.05 7.14L206.05 7.14Q205.83 7.53 205.54 8.09L205.54 8.09L205.54 8.09Q205.25 8.65 204.93 9.32L204.93 9.32L204.93 9.32Q204.61 9.98 204.30 10.68L204.30 10.68L204.30 10.68Q203.50 12.46 203.15 13.48L203.15 13.48L203.15 13.48Q202.79 14.50 202.79 14.90L202.79 14.90L202.79 14.90Q202.99 14.97 203.27 14.99L203.27 14.99L203.27 14.99Q203.55 15.02 203.87 15.02L203.87 15.02L203.87 15.02Q205.00 15.02 206.02 14.50L206.02 14.50L206.02 14.50Q207.03 13.97 207.80 13.09L207.80 13.09L207.80 13.09Q208.56 12.21 209.00 11.04L209.00 11.04L209.00 11.04Q209.44 9.87 209.44 8.58L209.44 8.58L209.44 8.58Q209.44 7.14 208.54 6.34L208.54 6.34L208.54 6.34Q207.65 5.54 206.12 5.54ZM234.33 9.34L234.33 9.34L234.33 9.34Q234.78 9.34 235.04 9.59L235.04 9.59L235.04 9.59Q235.30 9.84 235.30 10.29L235.30 10.29L235.30 10.29Q235.30 10.40 235.28 10.52L235.28 10.52L235.28 10.52Q235.27 10.64 235.23 10.72L235.23 10.72L235.23 10.72Q235.05 10.70 234.82 10.68L234.82 10.68L234.82 10.68Q234.60 10.65 234.29 10.65L234.29 10.65L234.29 10.65Q233.66 10.65 233.03 10.77L233.03 10.77L233.03 10.77Q232.40 10.88 231.83 10.95L231.83 10.95L231.83 10.95Q231.20 12.43 230.79 13.73L230.79 13.73L230.79 13.73Q230.38 15.04 230.16 16.31L230.16 16.31L230.16 16.31Q229.68 16.20 229.32 15.90L229.32 15.90L229.32 15.90Q228.96 15.61 228.63 15.08L228.63 15.08L228.63 15.08Q228.73 14.85 228.87 14.54L228.87 14.54L228.87 14.54Q229.01 14.22 229.21 13.74L229.21 13.74L229.21 13.74Q229.40 13.26 229.68 12.56L229.68 12.56L229.68 12.56Q229.95 11.87 230.33 10.91L230.33 10.91L230.33 10.91Q229.74 10.71 229.56 10.22L229.56 10.22L229.56 10.22Q229.63 10.15 229.95 10.06L229.95 10.06L229.95 10.06Q230.27 9.97 230.73 9.86L230.73 9.86L230.73 9.86Q230.94 9.31 231.10 8.88L231.10 8.88L231.10 8.88Q231.25 8.46 231.38 8.07L231.38 8.07L231.38 8.07Q231.50 7.69 231.61 7.32L231.61 7.32L231.61 7.32Q231.71 6.94 231.80 6.52L231.80 6.52L231.73 6.52L231.73 6.52Q231.20 6.52 230.87 6.27L230.87 6.27L230.87 6.27Q230.54 6.02 230.54 5.61L230.54 5.61L230.54 5.61Q230.54 5.50 230.57 5.35L230.57 5.35L230.57 5.35Q230.61 5.19 230.66 5.08L230.66 5.08L230.66 5.08Q230.93 5.12 231.19 5.14L231.19 5.14L231.19 5.14Q231.45 5.15 231.87 5.15L231.87 5.15L231.87 5.15Q232.75 5.15 233.52 5.10L233.52 5.10L233.52 5.10Q234.29 5.05 234.91 5.00L234.91 5.00L234.91 5.00Q235.54 4.94 235.98 4.89L235.98 4.89L235.98 4.89Q236.43 4.84 236.67 4.84L236.67 4.84L236.67 4.84Q236.99 4.84 237.24 5.18L237.24 5.18L237.24 5.18Q237.50 5.52 237.64 6.13L237.64 6.13L237.64 6.13Q237.19 6.09 236.91 6.08L236.91 6.08L236.91 6.08Q236.64 6.06 236.43 6.06L236.43 6.06L236.43 6.06Q235.72 6.06 235.12 6.13L235.12 6.13L235.12 6.13Q234.53 6.19 234.00 6.27L234.00 6.27L234.00 6.27Q233.91 6.40 233.81 6.59L233.81 6.59L233.81 6.59Q233.70 6.79 233.53 7.15L233.53 7.15L233.53 7.15Q233.37 7.50 233.11 8.08L233.11 8.08L233.11 8.08Q232.85 8.65 232.46 9.53L232.46 9.53L232.46 9.53Q233.00 9.45 233.50 9.39L233.50 9.39L233.50 9.39Q234.00 9.34 234.33 9.34ZM249.63 4.98L249.63 4.98L249.63 4.98Q249.90 5.10 250.18 5.27L250.18 5.27L250.18 5.27Q250.46 5.45 250.70 5.63L250.70 5.63L250.70 5.63Q250.94 5.81 251.10 5.98L251.10 5.98L251.10 5.98Q251.26 6.16 251.27 6.27L251.27 6.27L251.27 6.27Q251.03 6.22 250.80 6.20L250.80 6.20L250.80 6.20Q250.56 6.17 250.36 6.17L250.36 6.17L250.36 6.17Q249.73 6.17 249.11 6.48L249.11 6.48L249.11 6.48Q248.49 6.79 247.93 7.32L247.93 7.32L247.93 7.32Q247.37 7.85 246.89 8.57L246.89 8.57L246.89 8.57Q246.41 9.28 246.07 10.09L246.07 10.09L246.07 10.09Q245.73 10.91 245.53 11.77L245.53 11.77L245.53 11.77Q245.34 12.64 245.34 13.48L245.34 13.48L245.34 13.48Q245.34 14.57 245.70 15.11L245.70 15.11L245.70 15.11Q246.06 15.64 246.76 15.64L246.76 15.64L246.76 15.64Q247.10 15.64 247.49 15.51L247.49 15.51L247.49 15.51Q247.88 15.37 248.29 15.13L248.29 15.13L248.29 15.13Q248.70 14.90 249.09 14.56L249.09 14.56L249.09 14.56Q249.48 14.22 249.82 13.82L249.82 13.82L249.82 13.82Q250.31 13.23 250.70 12.48L250.70 12.48L250.70 12.48Q251.09 11.73 251.36 10.89L251.36 10.89L251.36 10.89Q251.64 10.05 251.78 9.16L251.78 9.16L251.78 9.16Q251.93 8.27 251.93 7.42L251.93 7.42L251.93 7.42Q251.93 7.08 251.92 6.85L251.92 6.85L251.92 6.85Q251.90 6.62 251.88 6.46L251.88 6.46L251.88 6.46Q251.86 6.30 251.85 6.20L251.85 6.20L251.85 6.20Q251.83 6.10 251.82 6.03L251.82 6.03L251.82 6.03Q251.99 6.12 252.19 6.24L252.19 6.24L252.19 6.24Q252.39 6.36 252.57 6.59L252.57 6.59L252.57 6.59Q252.74 6.82 252.86 7.20L252.86 7.20L252.86 7.20Q252.98 7.57 252.98 8.18L252.98 8.18L252.98 8.18Q252.98 9.16 252.75 10.10L252.75 10.10L252.75 10.10Q252.52 11.05 252.10 11.90L252.10 11.90L252.10 11.90Q251.69 12.75 251.13 13.50L251.13 13.50L251.13 13.50Q250.57 14.24 249.93 14.80L249.93 14.80L249.93 14.80Q249.09 15.54 248.14 15.95L248.14 15.95L248.14 15.95Q247.18 16.35 246.30 16.35L246.30 16.35L246.30 16.35Q245.01 16.35 244.33 15.53L244.33 15.53L244.33 15.53Q243.66 14.71 243.66 13.12L243.66 13.12L243.66 13.12Q243.66 12.26 243.84 11.31L243.84 11.31L243.84 11.31Q244.03 10.36 244.38 9.44L244.38 9.44L244.38 9.44Q244.72 8.51 245.20 7.68L245.20 7.68L245.20 7.68Q245.67 6.85 246.24 6.21L246.24 6.21L246.24 6.21Q246.81 5.57 247.46 5.19L247.46 5.19L247.46 5.19Q248.11 4.82 248.79 4.82L248.79 4.82L248.79 4.82Q249.02 4.82 249.21 4.85L249.21 4.85L249.21 4.85Q249.41 4.89 249.63 4.98ZM269.82 7.46L269.82 7.46L269.82 7.46Q269.82 8.13 269.52 8.73L269.52 8.73L269.52 8.73Q269.22 9.32 268.69 9.79L268.69 9.79L268.69 9.79Q268.16 10.26 267.44 10.58L267.44 10.58L267.44 10.58Q266.73 10.91 265.89 11.02L265.89 11.02L265.89 11.02Q266.10 11.65 266.40 12.31L266.40 12.31L266.40 12.31Q266.70 12.98 267.05 13.59L267.05 13.59L267.05 13.59Q267.40 14.21 267.78 14.73L267.78 14.73L267.78 14.73Q268.16 15.25 268.52 15.58L268.52 15.58L268.52 15.58Q268.45 15.72 268.32 15.86L268.32 15.86L268.32 15.86Q268.18 16.00 268.01 16.12L268.01 16.12L268.01 16.12Q267.83 16.24 267.64 16.32L267.64 16.32L267.64 16.32Q267.46 16.39 267.29 16.39L267.29 16.39L267.29 16.39Q266.98 16.39 266.70 16.10L266.70 16.10L266.70 16.10Q266.42 15.81 266.13 15.17L266.13 15.17L266.13 15.17Q265.85 14.53 265.53 13.52L265.53 13.52L265.53 13.52Q265.22 12.50 264.84 11.07L264.84 11.07L264.84 11.07Q264.68 11.07 264.53 11.07L264.53 11.07L264.53 11.07Q264.38 11.07 264.29 11.05L264.29 11.05L264.29 11.05Q264.19 10.99 264.08 10.85L264.08 10.85L264.08 10.85Q263.70 11.66 263.41 12.38L263.41 12.38L263.41 12.38Q263.12 13.09 262.88 13.76L262.88 13.76L262.88 13.76Q262.65 14.42 262.48 15.04L262.48 15.04L262.48 15.04Q262.30 15.67 262.18 16.31L262.18 16.31L262.18 16.31Q261.70 16.20 261.35 15.90L261.35 15.90L261.35 15.90Q261.00 15.61 260.69 15.08L260.69 15.08L260.69 15.08Q260.75 14.95 260.81 14.83L260.81 14.83L260.81 14.83Q260.88 14.71 260.97 14.50L260.97 14.50L260.97 14.50Q261.07 14.28 261.22 13.94L261.22 13.94L261.22 13.94Q261.37 13.61 261.61 13.05L261.61 13.05L261.61 13.05Q261.86 12.49 262.20 11.68L262.20 11.68L262.20 11.68Q262.54 10.86 263.03 9.70L263.03 9.70L263.03 9.70Q263.26 9.18 263.42 8.79L263.42 8.79L263.42 8.79Q263.58 8.40 263.70 8.04L263.70 8.04L263.70 8.04Q263.83 7.69 263.94 7.33L263.94 7.33L263.94 7.33Q264.04 6.97 264.15 6.51L264.15 6.51L264.15 6.51Q263.51 6.73 262.95 7.01L262.95 7.01L262.95 7.01Q262.40 7.28 262.04 7.59L262.04 7.59L262.04 7.59Q261.91 7.50 261.78 7.34L261.78 7.34L261.78 7.34Q261.65 7.17 261.53 6.96L261.53 6.96L261.53 6.96Q261.42 6.76 261.34 6.55L261.34 6.55L261.34 6.55Q261.25 6.34 261.24 6.17L261.24 6.17L261.24 6.17Q261.66 5.89 262.27 5.66L262.27 5.66L262.27 5.66Q262.88 5.42 263.56 5.24L263.56 5.24L263.56 5.24Q264.25 5.07 264.96 4.97L264.96 4.97L264.96 4.97Q265.68 4.87 266.29 4.87L266.29 4.87L266.29 4.87Q267.97 4.87 268.90 5.56L268.90 5.56L268.90 5.56Q269.82 6.26 269.82 7.46ZM266.24 6.02L266.41 6.29L266.41 6.29Q266.31 6.41 266.10 6.79L266.10 6.79L266.10 6.79Q265.89 7.17 265.61 7.69L265.61 7.69L265.61 7.69Q265.34 8.22 265.04 8.83L265.04 8.83L265.04 8.83Q264.74 9.45 264.46 10.05L264.46 10.05L264.46 10.05Q265.51 10.05 266.39 9.86L266.39 9.86L266.39 9.86Q267.27 9.66 267.92 9.30L267.92 9.30L267.92 9.30Q268.56 8.95 268.92 8.46L268.92 8.46L268.92 8.46Q269.28 7.98 269.28 7.39L269.28 7.39L269.28 7.39Q269.28 6.69 268.77 6.32L268.77 6.32L268.77 6.32Q268.27 5.95 267.22 5.95L267.22 5.95L267.22 5.95Q266.98 5.95 266.74 5.97L266.74 5.97L266.74 5.97Q266.50 5.99 266.24 6.02L266.24 6.02ZM290.08 6.69L290.08 6.69L290.08 6.69Q289.52 6.69 289.22 6.38L289.22 6.38L289.22 6.38Q288.92 6.06 288.92 5.61L288.92 5.61L288.92 5.61Q288.92 5.50 288.95 5.35L288.95 5.35L288.95 5.35Q288.99 5.19 289.04 5.08L289.04 5.08L289.04 5.08Q289.23 5.17 289.58 5.20L289.58 5.20L289.58 5.20Q289.94 5.24 290.42 5.24L290.42 5.24L290.42 5.24Q291.13 5.24 292.03 5.17L292.03 5.17L292.03 5.17Q292.94 5.11 293.76 5.04L293.76 5.04L293.76 5.04Q294.59 4.97 295.22 4.91L295.22 4.91L295.22 4.91Q295.85 4.84 296.03 4.84L296.03 4.84L296.03 4.84Q296.55 4.84 296.78 5.23L296.78 5.23L296.78 5.23Q297.01 5.61 297.12 6.26L297.12 6.26L297.12 6.26Q296.76 6.23 296.40 6.21L296.40 6.21L296.40 6.21Q296.04 6.19 295.79 6.19L295.79 6.19L295.79 6.19Q295.34 6.19 294.89 6.22L294.89 6.22L294.89 6.22Q294.43 6.24 293.97 6.30L293.97 6.30L293.97 6.30Q293.78 6.71 293.54 7.26L293.54 7.26L293.54 7.26Q293.30 7.81 293.07 8.41L293.07 8.41L293.07 8.41Q292.84 9.02 292.63 9.61L292.63 9.61L292.63 9.61Q292.42 10.21 292.26 10.68L292.26 10.68L292.26 10.68Q291.96 11.61 291.72 12.39L291.72 12.39L291.72 12.39Q291.49 13.17 291.32 13.85L291.32 13.85L291.32 13.85Q291.14 14.53 291.02 15.15L291.02 15.15L291.02 15.15Q290.89 15.76 290.79 16.35L290.79 16.35L290.79 16.35Q289.86 16.21 289.23 15.18L289.23 15.18L289.23 15.18Q289.34 14.74 289.50 14.23L289.50 14.23L289.50 14.23Q289.66 13.72 289.88 13.07L289.88 13.07L289.88 13.07Q290.09 12.42 290.39 11.59L290.39 11.59L290.39 11.59Q290.68 10.77 291.06 9.72L291.06 9.72L291.06 9.72Q291.20 9.32 291.35 8.90L291.35 8.90L291.35 8.90Q291.51 8.47 291.65 8.05L291.65 8.05L291.65 8.05Q291.80 7.63 291.92 7.24L291.92 7.24L291.92 7.24Q292.04 6.85 292.12 6.52L292.12 6.52L292.12 6.52Q291.54 6.59 291.01 6.64L291.01 6.64L291.01 6.64Q290.49 6.69 290.08 6.69ZM308 14.36L308 14.36L308 14.36Q308 13.78 308.20 12.85L308.20 12.85L308.20 12.85Q308.39 11.93 308.71 10.88L308.71 10.88L308.71 10.88Q307.79 10.95 306.86 11.06L306.86 11.06L306.86 11.06Q305.93 11.17 305.24 11.19L305.24 11.19L305.24 11.19Q304.61 12.66 304.24 13.89L304.24 13.89L304.24 13.89Q303.87 15.13 303.66 16.31L303.66 16.31L303.66 16.31Q303.13 16.18 302.78 15.87L302.78 15.87L302.78 15.87Q302.43 15.55 302.13 15.08L302.13 15.08L302.13 15.08Q302.25 14.85 302.39 14.50L302.39 14.50L302.39 14.50Q302.54 14.15 302.74 13.66L302.74 13.66L302.74 13.66Q302.95 13.16 303.20 12.50L303.20 12.50L303.20 12.50Q303.46 11.83 303.80 10.95L303.80 10.95L303.80 10.95Q303.34 10.75 303.18 10.40L303.18 10.40L303.18 10.40Q303.25 10.35 303.50 10.28L303.50 10.28L303.50 10.28Q303.74 10.22 304.11 10.15L304.11 10.15L304.29 9.70L304.29 9.70Q304.58 8.95 304.77 8.43L304.77 8.43L304.77 8.43Q304.96 7.91 305.09 7.41L305.09 7.41L305.09 7.41Q305.23 6.92 305.35 6.31L305.35 6.31L305.35 6.31Q305.47 5.71 305.63 4.79L305.63 4.79L305.63 4.79Q306.22 4.90 306.70 5.31L306.70 5.31L306.70 5.31Q307.19 5.71 307.54 6.29L307.54 6.29L307.54 6.29Q307.41 6.45 307.23 6.79L307.23 6.79L307.23 6.79Q307.05 7.13 306.83 7.59L306.83 7.59L306.83 7.59Q306.61 8.06 306.36 8.64L306.36 8.64L306.36 8.64Q306.11 9.23 305.82 9.87L305.82 9.87L305.82 9.87Q306.68 9.76 307.57 9.66L307.57 9.66L307.57 9.66Q308.46 9.56 309.15 9.52L309.15 9.52L309.15 9.52Q309.40 8.79 309.67 8.10L309.67 8.10L309.67 8.10Q309.95 7.41 310.21 6.83L310.21 6.83L310.21 6.83Q310.48 6.26 310.72 5.82L310.72 5.82L310.72 5.82Q310.97 5.39 311.16 5.18L311.16 5.18L311.16 5.18Q311.30 5.19 311.53 5.29L311.53 5.29L311.53 5.29Q311.77 5.38 312.00 5.50L312.00 5.50L312.00 5.50Q312.24 5.63 312.44 5.78L312.44 5.78L312.44 5.78Q312.63 5.92 312.70 6.05L312.70 6.05L312.70 6.05Q312.45 6.29 312.20 6.66L312.20 6.66L312.20 6.66Q311.95 7.04 311.70 7.53L311.70 7.53L311.70 7.53Q311.46 8.02 311.22 8.60L311.22 8.60L311.22 8.60Q310.98 9.17 310.77 9.79L310.77 9.79L310.77 9.79Q311.05 10.04 311.05 10.42L311.05 10.42L311.05 10.42Q311.05 10.68 310.94 10.91L310.94 10.91L310.94 10.91Q310.81 10.88 310.69 10.87L310.69 10.87L310.69 10.87Q310.56 10.86 310.42 10.85L310.42 10.85L310.42 10.85Q310.18 11.61 309.99 12.35L309.99 12.35L309.99 12.35Q309.79 13.09 309.66 13.76L309.66 13.76L309.66 13.76Q309.53 14.43 309.45 14.99L309.45 14.99L309.45 14.99Q309.37 15.55 309.37 15.93L309.37 15.93L309.37 15.93Q309.37 16.07 309.38 16.16L309.38 16.16L309.38 16.16Q309.39 16.24 309.40 16.30L309.40 16.30L309.40 16.30Q309.09 16.28 308.95 16.19L308.95 16.19L308.95 16.19Q308.81 16.10 308.74 16.00L308.74 16.00L308.74 16.00Q308.67 15.89 308.62 15.79L308.62 15.79L308.62 15.79Q308.56 15.68 308.43 15.62L308.43 15.62L308.43 15.62Q308.34 15.58 308.25 15.43L308.25 15.43L308.25 15.43Q308.17 15.27 308.11 15.08L308.11 15.08L308.11 15.08Q308.06 14.88 308.03 14.69L308.03 14.69L308.03 14.69Q308 14.49 308 14.36ZM324.77 9.21L324.77 9.21L324.77 9.21Q325.23 9.21 325.49 9.46L325.49 9.46L325.49 9.46Q325.75 9.72 325.75 10.16L325.75 10.16L325.75 10.16Q325.75 10.28 325.73 10.39L325.73 10.39L325.73 10.39Q325.71 10.51 325.68 10.60L325.68 10.60L325.68 10.60Q325.50 10.57 325.28 10.55L325.28 10.55L325.28 10.55Q325.05 10.53 324.74 10.53L324.74 10.53L324.74 10.53Q324.14 10.53 323.53 10.63L323.53 10.63L323.53 10.63Q322.91 10.74 322.35 10.81L322.35 10.81L322.35 10.81Q322.03 11.55 321.76 12.24L321.76 12.24L321.76 12.24Q321.50 12.94 321.31 13.51L321.31 13.51L321.31 13.51Q321.12 14.08 321.01 14.50L321.01 14.50L321.01 14.50Q320.91 14.92 320.89 15.13L320.89 15.13L320.89 15.13Q322.03 14.90 323.18 14.73L323.18 14.73L323.18 14.73Q324.34 14.56 325.61 14.48L325.61 14.48L325.61 14.48Q325.77 14.71 325.87 14.99L325.87 14.99L325.87 14.99Q325.98 15.27 325.98 15.60L325.98 15.60L325.98 15.60Q325.98 15.68 325.98 15.78L325.98 15.78L325.98 15.78Q325.98 15.88 325.95 15.97L325.95 15.97L325.95 15.97Q325.56 15.96 325.12 15.95L325.12 15.95L325.12 15.95Q324.69 15.95 323.99 15.95L323.99 15.95L323.99 15.95Q323.53 15.95 323.11 15.97L323.11 15.97L323.11 15.97Q322.70 15.99 322.28 16.03L322.28 16.03L322.28 16.03Q321.86 16.07 321.39 16.14L321.39 16.14L321.39 16.14Q320.92 16.21 320.33 16.31L320.33 16.31L320.33 16.31Q319.69 16.06 319.09 15.08L319.09 15.08L319.09 15.08Q319.33 14.57 319.75 13.54L319.75 13.54L319.75 13.54Q320.18 12.52 320.84 10.79L320.84 10.79L320.84 10.79Q320.21 10.60 320.01 10.09L320.01 10.09L320.01 10.09Q320.08 10.02 320.42 9.92L320.42 9.92L320.42 9.92Q320.75 9.81 321.24 9.70L321.24 9.70L321.24 9.70Q321.45 9.16 321.60 8.75L321.60 8.75L321.60 8.75Q321.75 8.34 321.86 7.99L321.86 7.99L321.86 7.99Q321.97 7.63 322.06 7.29L322.06 7.29L322.06 7.29Q322.15 6.94 322.24 6.54L322.24 6.54L322.24 6.54Q321.75 6.51 321.47 6.27L321.47 6.27L321.47 6.27Q321.19 6.02 321.19 5.63L321.19 5.63L321.19 5.63Q321.19 5.52 321.22 5.36L321.22 5.36L321.22 5.36Q321.26 5.21 321.30 5.10L321.30 5.10L321.30 5.10Q321.58 5.14 321.84 5.15L321.84 5.15L321.84 5.15Q322.10 5.17 322.52 5.17L322.52 5.17L322.52 5.17Q323.40 5.17 324.17 5.12L324.17 5.12L324.17 5.12Q324.94 5.07 325.56 5.01L325.56 5.01L325.56 5.01Q326.19 4.96 326.63 4.91L326.63 4.91L326.63 4.91Q327.08 4.86 327.32 4.86L327.32 4.86L327.32 4.86Q327.64 4.86 327.89 5.19L327.89 5.19L327.89 5.19Q328.15 5.53 328.27 6.15L328.27 6.15L328.27 6.15Q327.84 6.10 327.56 6.09L327.56 6.09L327.56 6.09Q327.29 6.08 327.08 6.08L327.08 6.08L327.08 6.08Q326.31 6.08 325.67 6.15L325.67 6.15L325.67 6.15Q325.04 6.23 324.45 6.31L324.45 6.31L324.45 6.31Q324.37 6.44 324.26 6.64L324.26 6.64L324.26 6.64Q324.16 6.83 323.99 7.18L323.99 7.18L323.99 7.18Q323.82 7.53 323.57 8.06L323.57 8.06L323.57 8.06Q323.33 8.60 322.98 9.39L322.98 9.39L322.98 9.39Q323.51 9.31 323.98 9.26L323.98 9.26L323.98 9.26Q324.45 9.21 324.77 9.21ZM345.42 12.43L345.42 12.43L345.42 12.43Q345.42 11.45 345.65 10.51L345.65 10.51L345.65 10.51Q345.88 9.56 346.30 8.71L346.30 8.71L346.30 8.71Q346.72 7.87 347.30 7.16L347.30 7.16L347.30 7.16Q347.89 6.45 348.58 5.94L348.58 5.94L348.58 5.94Q349.27 5.42 350.06 5.13L350.06 5.13L350.06 5.13Q350.84 4.84 351.67 4.84L351.67 4.84L351.67 4.84Q352.63 4.84 353.17 5.25L353.17 5.25L353.17 5.25Q353.71 5.66 353.71 6.38L353.71 6.38L353.71 6.38Q353.71 6.66 353.63 6.96L353.63 6.96L353.63 6.96Q353.56 7.25 353.41 7.54L353.41 7.54L353.41 7.54Q353.26 7.83 353.07 8.09L353.07 8.09L353.07 8.09Q352.87 8.36 352.63 8.55L352.63 8.55L352.63 8.55Q352.27 8.50 352.00 8.22L352.00 8.22L352.00 8.22Q351.74 7.95 351.67 7.59L351.67 7.59L351.67 7.59Q352.16 7.18 352.44 6.74L352.44 6.74L352.44 6.74Q352.73 6.30 352.73 5.94L352.73 5.94L352.73 5.94Q352.73 5.32 351.96 5.32L351.96 5.32L351.96 5.32Q351.64 5.32 351.29 5.45L351.29 5.45L351.29 5.45Q350.95 5.59 350.60 5.82L350.60 5.82L350.60 5.82Q350.25 6.06 349.92 6.40L349.92 6.40L349.92 6.40Q349.59 6.73 349.31 7.14L349.31 7.14L349.31 7.14Q347.37 9.94 347.37 12.87L347.37 12.87L347.37 12.87Q347.37 13.90 347.69 14.53L347.69 14.53L347.69 14.53Q348.01 15.16 348.54 15.27L348.54 15.27L348.54 15.27Q349.15 15.13 350.07 14.50L350.07 14.50L350.07 14.50Q350.99 13.87 352.09 12.87L352.09 12.87L352.09 12.87Q352.23 13.01 352.25 13.16L352.25 13.16L352.25 13.16Q351.85 13.69 351.41 14.18L351.41 14.18L351.41 14.18Q350.98 14.67 350.55 15.08L350.55 15.08L350.55 15.08Q350.13 15.48 349.71 15.79L349.71 15.79L349.71 15.79Q349.30 16.10 348.95 16.27L348.95 16.27L348.95 16.27Q347.21 16.24 346.32 15.27L346.32 15.27L346.32 15.27Q345.42 14.31 345.42 12.43ZM369.82 7.46L369.82 7.46L369.82 7.46Q369.82 8.13 369.52 8.73L369.52 8.73L369.52 8.73Q369.22 9.32 368.69 9.79L368.69 9.79L368.69 9.79Q368.16 10.26 367.44 10.58L367.44 10.58L367.44 10.58Q366.73 10.91 365.89 11.02L365.89 11.02L365.89 11.02Q366.10 11.65 366.40 12.31L366.40 12.31L366.40 12.31Q366.70 12.98 367.05 13.59L367.05 13.59L367.05 13.59Q367.40 14.21 367.78 14.73L367.78 14.73L367.78 14.73Q368.16 15.25 368.52 15.58L368.52 15.58L368.52 15.58Q368.45 15.72 368.32 15.86L368.32 15.86L368.32 15.86Q368.19 16.00 368.01 16.12L368.01 16.12L368.01 16.12Q367.84 16.24 367.65 16.32L367.65 16.32L367.65 16.32Q367.46 16.39 367.29 16.39L367.29 16.39L367.29 16.39Q366.98 16.39 366.70 16.10L366.70 16.10L366.70 16.10Q366.42 15.81 366.13 15.17L366.13 15.17L366.13 15.17Q365.85 14.53 365.53 13.52L365.53 13.52L365.53 13.52Q365.22 12.50 364.84 11.07L364.84 11.07L364.84 11.07Q364.69 11.07 364.53 11.07L364.53 11.07L364.53 11.07Q364.38 11.07 364.29 11.05L364.29 11.05L364.29 11.05Q364.20 10.99 364.08 10.85L364.08 10.85L364.08 10.85Q363.71 11.66 363.41 12.38L363.41 12.38L363.41 12.38Q363.12 13.09 362.89 13.76L362.89 13.76L362.89 13.76Q362.66 14.42 362.48 15.04L362.48 15.04L362.48 15.04Q362.31 15.67 362.18 16.31L362.18 16.31L362.18 16.31Q361.70 16.20 361.35 15.90L361.35 15.90L361.35 15.90Q361.00 15.61 360.70 15.08L360.70 15.08L360.70 15.08Q360.75 14.95 360.81 14.83L360.81 14.83L360.81 14.83Q360.88 14.71 360.98 14.50L360.98 14.50L360.98 14.50Q361.07 14.28 361.22 13.94L361.22 13.94L361.22 13.94Q361.37 13.61 361.61 13.05L361.61 13.05L361.61 13.05Q361.86 12.49 362.20 11.68L362.20 11.68L362.20 11.68Q362.54 10.86 363.03 9.70L363.03 9.70L363.03 9.70Q363.26 9.18 363.42 8.79L363.42 8.79L363.42 8.79Q363.58 8.40 363.71 8.04L363.71 8.04L363.71 8.04Q363.83 7.69 363.94 7.33L363.94 7.33L363.94 7.33Q364.04 6.97 364.15 6.51L364.15 6.51L364.15 6.51Q363.51 6.73 362.96 7.01L362.96 7.01L362.96 7.01Q362.40 7.28 362.04 7.59L362.04 7.59L362.04 7.59Q361.91 7.50 361.78 7.34L361.78 7.34L361.78 7.34Q361.65 7.17 361.54 6.96L361.54 6.96L361.54 6.96Q361.42 6.76 361.34 6.55L361.34 6.55L361.34 6.55Q361.26 6.34 361.24 6.17L361.24 6.17L361.24 6.17Q361.66 5.89 362.27 5.66L362.27 5.66L362.27 5.66Q362.88 5.42 363.57 5.24L363.57 5.24L363.57 5.24Q364.25 5.07 364.97 4.97L364.97 4.97L364.97 4.97Q365.68 4.87 366.30 4.87L366.30 4.87L366.30 4.87Q367.98 4.87 368.90 5.56L368.90 5.56L368.90 5.56Q369.82 6.26 369.82 7.46ZM366.24 6.02L366.41 6.29L366.41 6.29Q366.31 6.41 366.10 6.79L366.10 6.79L366.10 6.79Q365.89 7.17 365.62 7.69L365.62 7.69L365.62 7.69Q365.34 8.22 365.04 8.83L365.04 8.83L365.04 8.83Q364.74 9.45 364.46 10.05L364.46 10.05L364.46 10.05Q365.51 10.05 366.39 9.86L366.39 9.86L366.39 9.86Q367.28 9.66 367.92 9.30L367.92 9.30L367.92 9.30Q368.56 8.95 368.92 8.46L368.92 8.46L368.92 8.46Q369.28 7.98 369.28 7.39L369.28 7.39L369.28 7.39Q369.28 6.69 368.77 6.32L368.77 6.32L368.77 6.32Q368.27 5.95 367.22 5.95L367.22 5.95L367.22 5.95Q366.98 5.95 366.74 5.97L366.74 5.97L366.74 5.97Q366.51 5.99 366.24 6.02L366.24 6.02ZM382.65 9.21L382.65 9.21L382.65 9.21Q383.11 9.21 383.37 9.46L383.37 9.46L383.37 9.46Q383.63 9.72 383.63 10.16L383.63 10.16L383.63 10.16Q383.63 10.28 383.61 10.39L383.61 10.39L383.61 10.39Q383.59 10.51 383.56 10.60L383.56 10.60L383.56 10.60Q383.38 10.57 383.15 10.55L383.15 10.55L383.15 10.55Q382.93 10.53 382.62 10.53L382.62 10.53L382.62 10.53Q382.02 10.53 381.40 10.63L381.40 10.63L381.40 10.63Q380.79 10.74 380.23 10.81L380.23 10.81L380.23 10.81Q379.90 11.55 379.64 12.24L379.64 12.24L379.64 12.24Q379.37 12.94 379.18 13.51L379.18 13.51L379.18 13.51Q378.99 14.08 378.89 14.50L378.89 14.50L378.89 14.50Q378.78 14.92 378.77 15.13L378.77 15.13L378.77 15.13Q379.90 14.90 381.06 14.73L381.06 14.73L381.06 14.73Q382.21 14.56 383.49 14.48L383.49 14.48L383.49 14.48Q383.64 14.71 383.75 14.99L383.75 14.99L383.75 14.99Q383.85 15.27 383.85 15.60L383.85 15.60L383.85 15.60Q383.85 15.68 383.85 15.78L383.85 15.78L383.85 15.78Q383.85 15.88 383.82 15.97L383.82 15.97L383.82 15.97Q383.43 15.96 383.00 15.95L383.00 15.95L383.00 15.95Q382.56 15.95 381.86 15.95L381.86 15.95L381.86 15.95Q381.40 15.95 380.99 15.97L380.99 15.97L380.99 15.97Q380.58 15.99 380.16 16.03L380.16 16.03L380.16 16.03Q379.74 16.07 379.27 16.14L379.27 16.14L379.27 16.14Q378.80 16.21 378.21 16.31L378.21 16.31L378.21 16.31Q377.57 16.06 376.96 15.08L376.96 15.08L376.96 15.08Q377.20 14.57 377.63 13.54L377.63 13.54L377.63 13.54Q378.06 12.52 378.71 10.79L378.71 10.79L378.71 10.79Q378.08 10.60 377.89 10.09L377.89 10.09L377.89 10.09Q377.96 10.02 378.29 9.92L378.29 9.92L378.29 9.92Q378.63 9.81 379.12 9.70L379.12 9.70L379.12 9.70Q379.33 9.16 379.48 8.75L379.48 8.75L379.48 8.75Q379.62 8.34 379.74 7.99L379.74 7.99L379.74 7.99Q379.85 7.63 379.94 7.29L379.94 7.29L379.94 7.29Q380.03 6.94 380.11 6.54L380.11 6.54L380.11 6.54Q379.62 6.51 379.34 6.27L379.34 6.27L379.34 6.27Q379.06 6.02 379.06 5.63L379.06 5.63L379.06 5.63Q379.06 5.52 379.10 5.36L379.10 5.36L379.10 5.36Q379.13 5.21 379.18 5.10L379.18 5.10L379.18 5.10Q379.46 5.14 379.71 5.15L379.71 5.15L379.71 5.15Q379.97 5.17 380.39 5.17L380.39 5.17L380.39 5.17Q381.28 5.17 382.05 5.12L382.05 5.12L382.05 5.12Q382.82 5.07 383.44 5.01L383.44 5.01L383.44 5.01Q384.06 4.96 384.51 4.91L384.51 4.91L384.51 4.91Q384.96 4.86 385.20 4.86L385.20 4.86L385.20 4.86Q385.52 4.86 385.77 5.19L385.77 5.19L385.77 5.19Q386.02 5.53 386.15 6.15L386.15 6.15L386.15 6.15Q385.71 6.10 385.44 6.09L385.44 6.09L385.44 6.09Q385.17 6.08 384.96 6.08L384.96 6.08L384.96 6.08Q384.19 6.08 383.55 6.15L383.55 6.15L383.55 6.15Q382.91 6.23 382.33 6.31L382.33 6.31L382.33 6.31Q382.24 6.44 382.14 6.64L382.14 6.64L382.14 6.64Q382.03 6.83 381.86 7.18L381.86 7.18L381.86 7.18Q381.70 7.53 381.45 8.06L381.45 8.06L381.45 8.06Q381.21 8.60 380.86 9.39L380.86 9.39L380.86 9.39Q381.39 9.31 381.86 9.26L381.86 9.26L381.86 9.26Q382.33 9.21 382.65 9.21ZM393.02 16.24L393.02 16.24L393.02 16.24Q392.35 16.04 392.09 15.85L392.09 15.85L392.09 15.85Q391.83 15.65 391.83 15.36L391.83 15.36L391.83 15.36Q391.83 15.13 391.96 14.73L391.96 14.73L391.96 14.73Q392.08 14.32 392.33 13.77L392.33 13.77L392.33 13.77Q392.57 13.22 392.92 12.54L392.92 12.54L392.92 12.54Q393.26 11.87 393.69 11.10L393.69 11.10L393.69 11.10Q393.33 11.09 393.04 11.08L393.04 11.08L393.04 11.08Q392.76 11.07 392.57 11.07L392.57 11.07L392.57 11.07Q392.66 10.86 393.05 10.71L393.05 10.71L393.05 10.71Q393.44 10.56 394.09 10.44L394.09 10.44L394.09 10.44Q394.63 9.53 395.25 8.71L395.25 8.71L395.25 8.71Q395.88 7.88 396.51 7.19L396.51 7.19L396.51 7.19Q397.14 6.50 397.77 5.97L397.77 5.97L397.77 5.97Q398.40 5.45 398.97 5.14L398.97 5.14L398.97 5.14Q398.99 5.04 398.99 4.97L398.99 4.97L398.99 4.97Q399.00 4.90 399.00 4.87L399.00 4.87L399.00 4.87Q399.20 4.87 399.52 4.97L399.52 4.97L399.52 4.97Q399.85 5.07 400.17 5.21L400.17 5.21L400.17 5.21Q400.48 5.35 400.73 5.49L400.73 5.49L400.73 5.49Q400.97 5.64 401.00 5.74L401.00 5.74L401.00 5.74Q400.54 6.55 400.09 8.17L400.09 8.17L400.09 8.17Q399.64 9.79 399.35 12.04L399.35 12.04L399.35 12.04Q399.28 12.60 399.23 13.31L399.23 13.31L399.23 13.31Q399.18 14.03 399.18 14.91L399.18 14.91L399.18 14.91Q399.18 15.22 399.18 15.54L399.18 15.54L399.18 15.54Q399.18 15.86 399.21 16.21L399.21 16.21L399.21 16.21Q399.18 16.23 399.15 16.23L399.15 16.23L399.15 16.23Q399.13 16.23 399.04 16.23L399.04 16.23L399.04 16.23Q398.85 16.23 398.59 16.16L398.59 16.16L398.59 16.16Q398.33 16.10 398.08 16.01L398.08 16.01L398.08 16.01Q397.84 15.92 397.66 15.81L397.66 15.81L397.66 15.81Q397.49 15.69 397.45 15.61L397.45 15.61L397.45 15.61Q397.43 15.43 397.43 15.25L397.43 15.25L397.43 15.25Q397.43 15.08 397.43 14.88L397.43 14.88L397.43 14.88Q397.43 14.01 397.49 13.12L397.49 13.12L397.49 13.12Q397.56 12.22 397.71 11.27L397.71 11.27L397.71 11.27Q397.52 11.26 397.19 11.23L397.19 11.23L397.19 11.23Q396.87 11.21 396.47 11.20L396.47 11.20L396.47 11.20Q396.07 11.19 395.62 11.16L395.62 11.16L395.62 11.16Q395.16 11.14 394.73 11.13L394.73 11.13L394.73 11.13Q394.39 11.76 394.10 12.38L394.10 12.38L394.10 12.38Q393.81 13.01 393.60 13.64L393.60 13.64L393.60 13.64Q393.36 14.31 393.21 14.98L393.21 14.98L393.21 14.98Q393.06 15.65 393.02 16.24ZM398.43 7.83L398.43 7.83L398.43 7.83Q398.48 7.63 398.56 7.29L398.56 7.29L398.56 7.29Q398.64 6.94 398.71 6.57L398.71 6.57L398.71 6.57Q398.36 6.69 397.93 7.03L397.93 7.03L397.93 7.03Q397.50 7.36 397.05 7.86L397.05 7.86L397.05 7.86Q396.59 8.36 396.12 8.98L396.12 8.98L396.12 8.98Q395.65 9.60 395.22 10.30L395.22 10.30L395.22 10.30Q396.40 10.21 397.89 10.18L397.89 10.18L397.89 10.18Q398.01 9.59 398.14 9.01L398.14 9.01L398.14 9.01Q398.27 8.43 398.43 7.83ZM410.58 6.69L410.58 6.69L410.58 6.69Q410.02 6.69 409.72 6.38L409.72 6.38L409.72 6.38Q409.42 6.06 409.42 5.61L409.42 5.61L409.42 5.61Q409.42 5.50 409.45 5.35L409.45 5.35L409.45 5.35Q409.49 5.19 409.54 5.08L409.54 5.08L409.54 5.08Q409.72 5.17 410.08 5.20L410.08 5.20L410.08 5.20Q410.44 5.24 410.91 5.24L410.91 5.24L410.91 5.24Q411.63 5.24 412.53 5.17L412.53 5.17L412.53 5.17Q413.43 5.11 414.26 5.04L414.26 5.04L414.26 5.04Q415.09 4.97 415.72 4.91L415.72 4.91L415.72 4.91Q416.35 4.84 416.53 4.84L416.53 4.84L416.53 4.84Q417.05 4.84 417.28 5.23L417.28 5.23L417.28 5.23Q417.51 5.61 417.62 6.26L417.62 6.26L417.62 6.26Q417.26 6.23 416.90 6.21L416.90 6.21L416.90 6.21Q416.54 6.19 416.29 6.19L416.29 6.19L416.29 6.19Q415.84 6.19 415.39 6.22L415.39 6.22L415.39 6.22Q414.93 6.24 414.47 6.30L414.47 6.30L414.47 6.30Q414.27 6.71 414.04 7.26L414.04 7.26L414.04 7.26Q413.80 7.81 413.57 8.41L413.57 8.41L413.57 8.41Q413.34 9.02 413.13 9.61L413.13 9.61L413.13 9.61Q412.92 10.21 412.76 10.68L412.76 10.68L412.76 10.68Q412.45 11.61 412.22 12.39L412.22 12.39L412.22 12.39Q411.99 13.17 411.82 13.85L411.82 13.85L411.82 13.85Q411.64 14.53 411.52 15.15L411.52 15.15L411.52 15.15Q411.39 15.76 411.29 16.35L411.29 16.35L411.29 16.35Q410.35 16.21 409.72 15.18L409.72 15.18L409.72 15.18Q409.84 14.74 410.00 14.23L410.00 14.23L410.00 14.23Q410.16 13.72 410.37 13.07L410.37 13.07L410.37 13.07Q410.59 12.42 410.89 11.59L410.89 11.59L410.89 11.59Q411.18 10.77 411.56 9.72L411.56 9.72L411.56 9.72Q411.70 9.32 411.85 8.90L411.85 8.90L411.85 8.90Q412.01 8.47 412.15 8.05L412.15 8.05L412.15 8.05Q412.30 7.63 412.42 7.24L412.42 7.24L412.42 7.24Q412.54 6.85 412.62 6.52L412.62 6.52L412.62 6.52Q412.03 6.59 411.51 6.64L411.51 6.64L411.51 6.64Q410.98 6.69 410.58 6.69ZM423.46 14.38L423.46 14.38L423.46 14.38Q423.46 13.87 423.62 13.07L423.62 13.07L423.62 13.07Q423.78 12.26 424.04 11.33L424.04 11.33L424.04 11.33Q424.30 10.40 424.63 9.43L424.63 9.43L424.63 9.43Q424.97 8.46 425.32 7.60L425.32 7.60L425.32 7.60Q425.67 6.75 426.01 6.10L426.01 6.10L426.01 6.10Q426.34 5.46 426.61 5.18L426.61 5.18L426.61 5.18Q426.75 5.19 426.98 5.29L426.98 5.29L426.98 5.29Q427.21 5.38 427.45 5.50L427.45 5.50L427.45 5.50Q427.69 5.63 427.88 5.78L427.88 5.78L427.88 5.78Q428.08 5.92 428.13 6.05L428.13 6.05L428.13 6.05Q427.73 6.41 427.33 7.15L427.33 7.15L427.33 7.15Q426.93 7.88 426.56 8.82L426.56 8.82L426.56 8.82Q426.19 9.76 425.87 10.80L425.87 10.80L425.87 10.80Q425.54 11.84 425.31 12.82L425.31 12.82L425.31 12.82Q425.07 13.80 424.93 14.64L424.93 14.64L424.93 14.64Q424.80 15.48 424.80 16.00L424.80 16.00L424.80 16.00Q424.80 16.24 424.84 16.30L424.84 16.30L424.84 16.30Q424.54 16.28 424.40 16.19L424.40 16.19L424.40 16.19Q424.26 16.10 424.18 16.00L424.18 16.00L424.18 16.00Q424.10 15.89 424.04 15.79L424.04 15.79L424.04 15.79Q423.98 15.68 423.85 15.62L423.85 15.62L423.85 15.62Q423.75 15.58 423.68 15.43L423.68 15.43L423.68 15.43Q423.61 15.27 423.56 15.09L423.56 15.09L423.56 15.09Q423.51 14.90 423.49 14.70L423.49 14.70L423.49 14.70Q423.46 14.50 423.46 14.38ZM438.90 16.07L438.90 16.07L438.90 16.07Q438.58 16.24 438.21 16.24L438.21 16.24L438.21 16.24Q437.77 16.18 437.35 16.02L437.35 16.02L437.35 16.02Q436.94 15.85 436.74 15.61L436.74 15.61L436.74 15.61Q436.63 14.92 436.56 14.35L436.56 14.35L436.56 14.35Q436.49 13.78 436.45 13.27L436.45 13.27L436.45 13.27Q436.41 12.75 436.39 12.29L436.39 12.29L436.39 12.29Q436.38 11.82 436.38 11.34L436.38 11.34L436.38 11.34Q436.38 10.71 436.39 10.01L436.39 10.01L436.39 10.01Q436.41 9.31 436.43 8.52L436.43 8.52L436.43 8.52Q436.45 7.73 436.46 6.82L436.46 6.82L436.46 6.82Q436.48 5.92 436.48 4.86L436.48 4.86L436.48 4.86Q436.66 4.86 437.02 4.96L437.02 4.96L437.02 4.96Q437.39 5.07 437.74 5.21L437.74 5.21L437.74 5.21Q438.10 5.35 438.38 5.49L438.38 5.49L438.38 5.49Q438.66 5.64 438.69 5.74L438.69 5.74L438.69 5.74Q438.55 6.13 438.44 6.76L438.44 6.76L438.44 6.76Q438.34 7.39 438.28 8.16L438.28 8.16L438.28 8.16Q438.21 8.93 438.19 9.79L438.19 9.79L438.19 9.79Q438.16 10.64 438.16 11.48L438.16 11.48L438.16 11.48Q438.16 12.11 438.17 12.61L438.17 12.61L438.17 12.61Q438.19 13.10 438.21 13.50L438.21 13.50L438.21 13.50Q438.23 13.90 438.27 14.25L438.27 14.25L438.27 14.25Q438.31 14.59 438.37 14.92L438.37 14.92L438.37 14.92Q438.76 13.73 439.23 12.54L439.23 12.54L439.23 12.54Q439.70 11.35 440.19 10.25L440.19 10.25L440.19 10.25Q440.69 9.16 441.18 8.20L441.18 8.20L441.18 8.20Q441.67 7.25 442.11 6.54L442.11 6.54L442.11 6.54Q442.55 5.84 442.90 5.43L442.90 5.43L442.90 5.43Q443.25 5.01 443.48 4.98L443.48 4.98L443.48 4.98Q443.63 5.01 443.81 5.10L443.81 5.10L443.81 5.10Q443.98 5.19 444.14 5.32L444.14 5.32L444.14 5.32Q444.29 5.45 444.42 5.60L444.42 5.60L444.42 5.60Q444.54 5.75 444.61 5.91L444.61 5.91L444.61 5.91Q444.09 6.09 443.50 6.76L443.50 6.76L443.50 6.76Q442.90 7.43 442.30 8.38L442.30 8.38L442.30 8.38Q441.70 9.32 441.13 10.44L441.13 10.44L441.13 10.44Q440.57 11.55 440.11 12.61L440.11 12.61L440.11 12.61Q439.66 13.68 439.33 14.60L439.33 14.60L439.33 14.60Q439.01 15.53 438.90 16.07ZM455.87 9.21L455.87 9.21L455.87 9.21Q456.33 9.21 456.59 9.46L456.59 9.46L456.59 9.46Q456.85 9.72 456.85 10.16L456.85 10.16L456.85 10.16Q456.85 10.28 456.83 10.39L456.83 10.39L456.83 10.39Q456.81 10.51 456.78 10.60L456.78 10.60L456.78 10.60Q456.60 10.57 456.37 10.55L456.37 10.55L456.37 10.55Q456.15 10.53 455.84 10.53L455.84 10.53L455.84 10.53Q455.24 10.53 454.62 10.63L454.62 10.63L454.62 10.63Q454.01 10.74 453.45 10.81L453.45 10.81L453.45 10.81Q453.12 11.55 452.86 12.24L452.86 12.24L452.86 12.24Q452.59 12.94 452.40 13.51L452.40 13.51L452.40 13.51Q452.21 14.08 452.11 14.50L452.11 14.50L452.11 14.50Q452.00 14.92 451.99 15.13L451.99 15.13L451.99 15.13Q453.12 14.90 454.28 14.73L454.28 14.73L454.28 14.73Q455.43 14.56 456.71 14.48L456.71 14.48L456.71 14.48Q456.86 14.71 456.97 14.99L456.97 14.99L456.97 14.99Q457.07 15.27 457.07 15.60L457.07 15.60L457.07 15.60Q457.07 15.68 457.07 15.78L457.07 15.78L457.07 15.78Q457.07 15.88 457.04 15.97L457.04 15.97L457.04 15.97Q456.65 15.96 456.22 15.95L456.22 15.95L456.22 15.95Q455.78 15.95 455.08 15.95L455.08 15.95L455.08 15.95Q454.62 15.95 454.21 15.97L454.21 15.97L454.21 15.97Q453.80 15.99 453.38 16.03L453.38 16.03L453.38 16.03Q452.96 16.07 452.49 16.14L452.49 16.14L452.49 16.14Q452.02 16.21 451.43 16.31L451.43 16.31L451.43 16.31Q450.79 16.06 450.18 15.08L450.18 15.08L450.18 15.08Q450.42 14.57 450.85 13.54L450.85 13.54L450.85 13.54Q451.28 12.52 451.93 10.79L451.93 10.79L451.93 10.79Q451.30 10.60 451.11 10.09L451.11 10.09L451.11 10.09Q451.18 10.02 451.51 9.92L451.51 9.92L451.51 9.92Q451.85 9.81 452.34 9.70L452.34 9.70L452.34 9.70Q452.55 9.16 452.70 8.75L452.70 8.75L452.70 8.75Q452.84 8.34 452.96 7.99L452.96 7.99L452.96 7.99Q453.07 7.63 453.16 7.29L453.16 7.29L453.16 7.29Q453.25 6.94 453.33 6.54L453.33 6.54L453.33 6.54Q452.84 6.51 452.56 6.27L452.56 6.27L452.56 6.27Q452.28 6.02 452.28 5.63L452.28 5.63L452.28 5.63Q452.28 5.52 452.32 5.36L452.32 5.36L452.32 5.36Q452.35 5.21 452.40 5.10L452.40 5.10L452.40 5.10Q452.68 5.14 452.93 5.15L452.93 5.15L452.93 5.15Q453.19 5.17 453.61 5.17L453.61 5.17L453.61 5.17Q454.50 5.17 455.27 5.12L455.27 5.12L455.27 5.12Q456.04 5.07 456.66 5.01L456.66 5.01L456.66 5.01Q457.28 4.96 457.73 4.91L457.73 4.91L457.73 4.91Q458.18 4.86 458.42 4.86L458.42 4.86L458.42 4.86Q458.74 4.86 458.99 5.19L458.99 5.19L458.99 5.19Q459.24 5.53 459.37 6.15L459.37 6.15L459.37 6.15Q458.93 6.10 458.66 6.09L458.66 6.09L458.66 6.09Q458.39 6.08 458.18 6.08L458.18 6.08L458.18 6.08Q457.41 6.08 456.77 6.15L456.77 6.15L456.77 6.15Q456.13 6.23 455.55 6.31L455.55 6.31L455.55 6.31Q455.46 6.44 455.36 6.64L455.36 6.64L455.36 6.64Q455.25 6.83 455.08 7.18L455.08 7.18L455.08 7.18Q454.92 7.53 454.67 8.06L454.67 8.06L454.67 8.06Q454.43 8.60 454.08 9.39L454.08 9.39L454.08 9.39Q454.61 9.31 455.08 9.26L455.08 9.26L455.08 9.26Q455.55 9.21 455.87 9.21ZM476.52 12.43L476.52 12.43L476.52 12.43Q476.52 11.45 476.75 10.51L476.75 10.51L476.75 10.51Q476.98 9.56 477.40 8.71L477.40 8.71L477.40 8.71Q477.82 7.87 478.40 7.16L478.40 7.16L478.40 7.16Q478.98 6.45 479.67 5.94L479.67 5.94L479.67 5.94Q480.37 5.42 481.15 5.13L481.15 5.13L481.15 5.13Q481.94 4.84 482.76 4.84L482.76 4.84L482.76 4.84Q483.73 4.84 484.27 5.25L484.27 5.25L484.27 5.25Q484.81 5.66 484.81 6.38L484.81 6.38L484.81 6.38Q484.81 6.66 484.73 6.96L484.73 6.96L484.73 6.96Q484.65 7.25 484.50 7.54L484.50 7.54L484.50 7.54Q484.36 7.83 484.16 8.09L484.16 8.09L484.16 8.09Q483.97 8.36 483.73 8.55L483.73 8.55L483.73 8.55Q483.36 8.50 483.10 8.22L483.10 8.22L483.10 8.22Q482.83 7.95 482.76 7.59L482.76 7.59L482.76 7.59Q483.25 7.18 483.54 6.74L483.54 6.74L483.54 6.74Q483.83 6.30 483.83 5.94L483.83 5.94L483.83 5.94Q483.83 5.32 483.06 5.32L483.06 5.32L483.06 5.32Q482.73 5.32 482.39 5.45L482.39 5.45L482.39 5.45Q482.05 5.59 481.70 5.82L481.70 5.82L481.70 5.82Q481.35 6.06 481.02 6.40L481.02 6.40L481.02 6.40Q480.69 6.73 480.41 7.14L480.41 7.14L480.41 7.14Q478.46 9.94 478.46 12.87L478.46 12.87L478.46 12.87Q478.46 13.90 478.79 14.53L478.79 14.53L478.79 14.53Q479.11 15.16 479.64 15.27L479.64 15.27L479.64 15.27Q480.24 15.13 481.17 14.50L481.17 14.50L481.17 14.50Q482.09 13.87 483.18 12.87L483.18 12.87L483.18 12.87Q483.32 13.01 483.35 13.16L483.35 13.16L483.35 13.16Q482.94 13.69 482.51 14.18L482.51 14.18L482.51 14.18Q482.08 14.67 481.65 15.08L481.65 15.08L481.65 15.08Q481.22 15.48 480.81 15.79L480.81 15.79L480.81 15.79Q480.40 16.10 480.05 16.27L480.05 16.27L480.05 16.27Q478.31 16.24 477.41 15.27L477.41 15.27L477.41 15.27Q476.52 14.31 476.52 12.43ZM496.86 14.36L496.86 14.36L496.86 14.36Q496.86 13.78 497.06 12.85L497.06 12.85L497.06 12.85Q497.25 11.93 497.57 10.88L497.57 10.88L497.57 10.88Q496.65 10.95 495.72 11.06L495.72 11.06L495.72 11.06Q494.79 11.17 494.10 11.19L494.10 11.19L494.10 11.19Q493.47 12.66 493.10 13.89L493.10 13.89L493.10 13.89Q492.73 15.13 492.52 16.31L492.52 16.31L492.52 16.31Q491.99 16.18 491.64 15.87L491.64 15.87L491.64 15.87Q491.29 15.55 490.99 15.08L490.99 15.08L490.99 15.08Q491.11 14.85 491.25 14.50L491.25 14.50L491.25 14.50Q491.40 14.15 491.60 13.66L491.60 13.66L491.60 13.66Q491.81 13.16 492.06 12.50L492.06 12.50L492.06 12.50Q492.32 11.83 492.66 10.95L492.66 10.95L492.66 10.95Q492.20 10.75 492.04 10.40L492.04 10.40L492.04 10.40Q492.11 10.35 492.36 10.28L492.36 10.28L492.36 10.28Q492.60 10.22 492.97 10.15L492.97 10.15L493.15 9.70L493.15 9.70Q493.44 8.95 493.63 8.43L493.63 8.43L493.63 8.43Q493.82 7.91 493.95 7.41L493.95 7.41L493.95 7.41Q494.09 6.92 494.21 6.31L494.21 6.31L494.21 6.31Q494.33 5.71 494.49 4.79L494.49 4.79L494.49 4.79Q495.08 4.90 495.56 5.31L495.56 5.31L495.56 5.31Q496.05 5.71 496.40 6.29L496.40 6.29L496.40 6.29Q496.27 6.45 496.09 6.79L496.09 6.79L496.09 6.79Q495.91 7.13 495.69 7.59L495.69 7.59L495.69 7.59Q495.47 8.06 495.22 8.64L495.22 8.64L495.22 8.64Q494.97 9.23 494.68 9.87L494.68 9.87L494.68 9.87Q495.54 9.76 496.43 9.66L496.43 9.66L496.43 9.66Q497.32 9.56 498.01 9.52L498.01 9.52L498.01 9.52Q498.26 8.79 498.53 8.10L498.53 8.10L498.53 8.10Q498.81 7.41 499.07 6.83L499.07 6.83L499.07 6.83Q499.34 6.26 499.58 5.82L499.58 5.82L499.58 5.82Q499.83 5.39 500.02 5.18L500.02 5.18L500.02 5.18Q500.16 5.19 500.39 5.29L500.39 5.29L500.39 5.29Q500.63 5.38 500.86 5.50L500.86 5.50L500.86 5.50Q501.10 5.63 501.30 5.78L501.30 5.78L501.30 5.78Q501.49 5.92 501.56 6.05L501.56 6.05L501.56 6.05Q501.31 6.29 501.06 6.66L501.06 6.66L501.06 6.66Q500.81 7.04 500.56 7.53L500.56 7.53L500.56 7.53Q500.32 8.02 500.08 8.60L500.08 8.60L500.08 8.60Q499.84 9.17 499.63 9.79L499.63 9.79L499.63 9.79Q499.91 10.04 499.91 10.42L499.91 10.42L499.91 10.42Q499.91 10.68 499.80 10.91L499.80 10.91L499.80 10.91Q499.67 10.88 499.55 10.87L499.55 10.87L499.55 10.87Q499.42 10.86 499.28 10.85L499.28 10.85L499.28 10.85Q499.04 11.61 498.85 12.35L498.85 12.35L498.85 12.35Q498.65 13.09 498.52 13.76L498.52 13.76L498.52 13.76Q498.39 14.43 498.31 14.99L498.31 14.99L498.31 14.99Q498.23 15.55 498.23 15.93L498.23 15.93L498.23 15.93Q498.23 16.07 498.24 16.16L498.24 16.16L498.24 16.16Q498.25 16.24 498.26 16.30L498.26 16.30L498.26 16.30Q497.95 16.28 497.81 16.19L497.81 16.19L497.81 16.19Q497.67 16.10 497.60 16.00L497.60 16.00L497.60 16.00Q497.53 15.89 497.48 15.79L497.48 15.79L497.48 15.79Q497.42 15.68 497.29 15.62L497.29 15.62L497.29 15.62Q497.20 15.58 497.11 15.43L497.11 15.43L497.11 15.43Q497.03 15.27 496.97 15.08L496.97 15.08L496.97 15.08Q496.92 14.88 496.89 14.69L496.89 14.69L496.89 14.69Q496.86 14.49 496.86 14.36ZM508.27 14.38L508.27 14.38L508.27 14.38Q508.27 13.87 508.43 13.07L508.43 13.07L508.43 13.07Q508.59 12.26 508.85 11.33L508.85 11.33L508.85 11.33Q509.11 10.40 509.45 9.43L509.45 9.43L509.45 9.43Q509.78 8.46 510.13 7.60L510.13 7.60L510.13 7.60Q510.48 6.75 510.82 6.10L510.82 6.10L510.82 6.10Q511.15 5.46 511.42 5.18L511.42 5.18L511.42 5.18Q511.56 5.19 511.79 5.29L511.79 5.29L511.79 5.29Q512.02 5.38 512.26 5.50L512.26 5.50L512.26 5.50Q512.50 5.63 512.69 5.78L512.69 5.78L512.69 5.78Q512.89 5.92 512.95 6.05L512.95 6.05L512.95 6.05Q512.54 6.41 512.14 7.15L512.14 7.15L512.14 7.15Q511.74 7.88 511.37 8.82L511.37 8.82L511.37 8.82Q511.00 9.76 510.68 10.80L510.68 10.80L510.68 10.80Q510.36 11.84 510.12 12.82L510.12 12.82L510.12 12.82Q509.88 13.80 509.75 14.64L509.75 14.64L509.75 14.64Q509.61 15.48 509.61 16.00L509.61 16.00L509.61 16.00Q509.61 16.24 509.66 16.30L509.66 16.30L509.66 16.30Q509.35 16.28 509.21 16.19L509.21 16.19L509.21 16.19Q509.07 16.10 508.99 16.00L508.99 16.00L508.99 16.00Q508.91 15.89 508.85 15.79L508.85 15.79L508.85 15.79Q508.79 15.68 508.66 15.62L508.66 15.62L508.66 15.62Q508.56 15.58 508.49 15.43L508.49 15.43L508.49 15.43Q508.42 15.27 508.37 15.09L508.37 15.09L508.37 15.09Q508.33 14.90 508.30 14.70L508.30 14.70L508.30 14.70Q508.27 14.50 508.27 14.38ZM524.47 14.38L524.47 14.38L524.47 14.38Q524.82 14.98 524.82 15.54L524.82 15.54L524.82 15.54Q524.82 15.67 524.80 15.77L524.80 15.77L524.80 15.77Q524.78 15.88 524.75 15.99L524.75 15.99L524.75 15.99Q524.51 15.96 524.25 15.95L524.25 15.95L524.25 15.95Q523.99 15.93 523.71 15.93L523.71 15.93L523.71 15.93Q523.38 15.93 523.03 15.95L523.03 15.95L523.03 15.95Q522.69 15.97 522.27 16.02L522.27 16.02L522.27 16.02Q521.85 16.06 521.33 16.13L521.33 16.13L521.33 16.13Q520.81 16.20 520.13 16.31L520.13 16.31L520.13 16.31Q519.81 16.20 519.48 15.87L519.48 15.87L519.48 15.87Q519.16 15.54 518.88 15.08L518.88 15.08L518.88 15.08Q519.02 14.77 519.23 14.31L519.23 14.31L519.23 14.31Q519.44 13.86 519.72 13.21L519.72 13.21L519.72 13.21Q520.00 12.56 520.35 11.68L520.35 11.68L520.35 11.68Q520.69 10.81 521.08 9.66L521.08 9.66L521.08 9.66Q521.33 8.90 521.51 8.33L521.51 8.33L521.51 8.33Q521.70 7.76 521.84 7.22L521.84 7.22L521.84 7.22Q521.99 6.68 522.13 6.09L522.13 6.09L522.13 6.09Q522.27 5.50 522.44 4.73L522.44 4.73L522.44 4.73Q523.00 4.84 523.41 5.14L523.41 5.14L523.41 5.14Q523.82 5.45 524.20 6.01L524.20 6.01L524.20 6.01Q524.09 6.19 523.91 6.59L523.91 6.59L523.91 6.59Q523.73 7 523.48 7.58L523.48 7.58L523.48 7.58Q523.24 8.16 522.94 8.90L522.94 8.90L522.94 8.90Q522.65 9.63 522.33 10.47L522.33 10.47L522.33 10.47Q522.02 11.30 521.72 12.03L521.72 12.03L521.72 12.03Q521.43 12.75 521.20 13.34L521.20 13.34L521.20 13.34Q520.97 13.93 520.83 14.35L520.83 14.35L520.83 14.35Q520.69 14.77 520.69 14.98L520.69 14.98L520.69 14.98Q520.91 14.97 521.09 14.95L521.09 14.95L521.09 14.95Q521.28 14.94 521.47 14.90L521.47 14.90L521.47 14.90Q521.67 14.87 521.90 14.82L521.90 14.82L521.90 14.82Q522.13 14.77 522.45 14.69L522.45 14.69L522.45 14.69Q522.73 14.62 522.97 14.57L522.97 14.57L522.97 14.57Q523.21 14.52 523.44 14.48L523.44 14.48L523.44 14.48Q523.67 14.45 523.91 14.43L523.91 14.43L523.91 14.43Q524.16 14.41 524.47 14.38ZM533.79 14.45L533.79 14.45L533.79 14.45Q534.00 13.99 534.30 13.26L534.30 13.26L534.30 13.26Q534.59 12.53 534.91 11.68L534.91 11.68L534.91 11.68Q535.23 10.84 535.57 9.95L535.57 9.95L535.57 9.95Q535.91 9.06 536.20 8.26L536.20 8.26L536.20 8.26Q536.49 7.46 536.71 6.83L536.71 6.83L536.71 6.83Q536.93 6.20 537.03 5.87L537.03 5.87L537.03 5.87Q536.14 6.23 535.51 6.97L535.51 6.97L535.51 6.97Q534.88 7.71 534.56 8.83L534.56 8.83L534.56 8.83Q534.24 8.72 533.97 8.43L533.97 8.43L533.97 8.43Q533.71 8.15 533.62 7.71L533.62 7.71L533.62 7.71Q533.76 7.07 534.15 6.54L534.15 6.54L534.15 6.54Q534.53 6.01 535.12 5.63L535.12 5.63L535.12 5.63Q535.71 5.25 536.48 5.05L536.48 5.05L536.48 5.05Q537.25 4.84 538.13 4.84L538.13 4.84L538.13 4.84Q539.25 4.84 540.19 5.17L540.19 5.17L540.19 5.17Q541.13 5.50 541.80 6.09L541.80 6.09L541.80 6.09Q542.47 6.68 542.85 7.50L542.85 7.50L542.85 7.50Q543.23 8.33 543.23 9.34L543.23 9.34L543.23 9.34Q543.23 10.71 542.72 11.96L542.72 11.96L542.72 11.96Q542.22 13.20 541.36 14.15L541.36 14.15L541.36 14.15Q540.50 15.11 539.36 15.67L539.36 15.67L539.36 15.67Q538.23 16.24 536.98 16.24L536.98 16.24L536.98 16.24Q535.84 16.24 535.02 15.79L535.02 15.79L535.02 15.79Q534.20 15.33 533.79 14.45ZM538.73 5.54L538.73 5.54L538.73 5.54Q538.03 5.54 537.40 5.74L537.40 5.74L537.40 5.74Q538.02 5.96 538.43 6.21L538.43 6.21L538.43 6.21Q538.83 6.45 538.99 6.59L538.99 6.59L538.99 6.59Q538.87 6.75 538.66 7.14L538.66 7.14L538.66 7.14Q538.44 7.53 538.15 8.09L538.15 8.09L538.15 8.09Q537.87 8.65 537.54 9.32L537.54 9.32L537.54 9.32Q537.22 9.98 536.91 10.68L536.91 10.68L536.91 10.68Q536.12 12.46 535.76 13.48L535.76 13.48L535.76 13.48Q535.40 14.50 535.40 14.90L535.40 14.90L535.40 14.90Q535.60 14.97 535.88 14.99L535.88 14.99L535.88 14.99Q536.16 15.02 536.48 15.02L536.48 15.02L536.48 15.02Q537.61 15.02 538.63 14.50L538.63 14.50L538.63 14.50Q539.64 13.97 540.41 13.09L540.41 13.09L540.41 13.09Q541.17 12.21 541.61 11.04L541.61 11.04L541.61 11.04Q542.05 9.87 542.05 8.58L542.05 8.58L542.05 8.58Q542.05 7.14 541.16 6.34L541.16 6.34L541.16 6.34Q540.26 5.54 538.73 5.54Z"></path></g></svg>