<svg data-v-423bf9ae="" xmlns="http://www.w3.org/2000/svg" viewBox="0 0 91.78246935117345 60" class="icon"><!----><!----><!----><!----><g data-v-423bf9ae="" id="b83c61ff-4d04-4a3a-83c1-5f0889c4ac90" transform="matrix(0.07501172630517573,0,0,0.07501172630517573,-2.138318449936264,-0.024391194507945357)" stroke="none" fill="white"><path d="M1129.8 604.9c-7.8-7.8-24.1-13.7-35.8-13.7-300.5 5.9-601 5.9-902.1 0-11.7 0-28 5.9-35.8 13.7-48.8 47.5-72.8 70.9-117.7 116.4-7.2 7.2-3.9 13.7 7.8 14.3 398 18.9 795.4 18.9 1193.5-.7 11.7-.7 15-7.2 7.8-14.3-44.9-44.8-68.3-68.2-117.7-115.7zM514.5 727.8c-11.7 0-14.3-6.5-5.9-14.3 5.2-4.6 7.8-7.2 13-12.4 8.5-7.8 24.7-14.3 36.4-14.3 68.9.7 103.4.7 172.4 0 11.7 0 28 6.5 36.4 14.3 5.2 4.6 7.8 7.2 13 12.4 8.5 7.8 5.9 14.3-5.9 14.3-85.8.7-172.9.7-259.4 0z"></path><path d="M1249.4 774c-.7 4.6-5.2 9.1-10.4 9.1-400 22.8-798 22.8-1198 0-4.6 0-9.1-4.6-10.4-9.1-.7-5.9-1.3-8.5-2-14.3-.7-4.6 2.6-8.5 7.8-8.5C439 772 841 772 1244.2 751.2c4.6 0 8.5 3.3 7.8 8.5-1.3 5.8-1.9 8.4-2.6 14.3zM642 195.1c-48.1 0-87.2 39-87.2 87.2 0 45.5 37.7 55.3 49.4 117.7 0 1.3.7 3.9 2.6 3.9 11.7 2 23.4 2.6 35.8 2.6s24.1-.7 35.8-2.6c2 0 2.6-2 2.6-3.3 13-58.5 49.4-72.8 49.4-118.4-.6-47.4-39.7-87.1-88.4-87.1zM651.1 419.5h-17.6l-20.2-1.3c-4.6-.7-7.8 2.6-7.2 7.8l3.9 26c.7 4.6 5.2 9.8 9.8 11.1 0 0 4.6 1.3 22.1 1.3 17.6 0 22.1-1.3 22.1-1.3 4.6-1.3 9.1-6.5 9.8-11.1l3.9-26c.7-4.6-2.6-8.5-7.2-7.8l-19.4 1.3zM543.1 228.3c-1.3 0-2.6-.7-3.9-1.3l-52.7-30.6c-3.9-2-5.2-7.2-2.6-11.1 2-3.9 7.2-5.2 11.1-2.6l52.7 30.6c3.9 2 5.2 7.2 2.6 11.1-2 2.6-4.6 3.9-7.2 3.9zM580.8 182.1c-2.6 0-5.2-1.3-7.2-3.9L543 125.5c-2-3.9-.7-8.5 2.6-11.1 3.9-2 8.5-.7 11.1 2.6l30.6 52.7c2 3.9.7 8.5-2.6 11.1-1.3.7-2.6 1.3-3.9 1.3zM640 160c-4.6 0-7.8-3.3-7.8-7.8V96.9c0-4.6 3.3-7.8 7.8-7.8 4.6 0 7.8 3.3 7.8 7.8v55.3c0 3.9-3.2 7.8-7.8 7.8zM703.7 182.1c-1.3 0-2.6-.7-3.9-1.3-3.9-2-5.2-7.2-2.6-11.1l30.6-52.7c2-3.9 7.2-5.2 11.1-2.6 3.9 2 5.2 7.2 2.6 11.1l-30.6 52.7c-1.3 2.6-3.9 3.9-7.2 3.9zM741.5 228.3c-2.6 0-5.2-1.3-7.2-3.9-2-3.9-.7-8.5 2.6-11.1l52.7-30.6c3.9-2 8.5-.7 11.1 2.6 2 3.9.7 8.5-2.6 11.1L745.4 227c-1.3 1.3-2.6 1.3-3.9 1.3z"></path><path d="M1062.1 48.1c14.3 153.5 19.5 307 15 461.1-288.8 3.3-578.2 3.3-867 0-3.9-153.5 1.3-307.6 15.6-461.1 279-9.1 557.4-9.1 836.4 0m15-39C787-2.6 498.2-2.6 208.1 9.1c-11.1.7-19.5 7.2-20.8 18.9-16.3 169.1-22.1 336.9-17.6 506.7.7 11.7 8.5 23.4 20.2 24.1 301.8 4.6 603.6 4.6 905.4 0 11.7 0 22.1-12.4 22.1-24.1 4.6-169.8-2-336.9-18.2-506-.7-13.1-10.4-19.6-22.1-19.6z"></path></g><!----></svg>